<?xml version="1.0" encoding="UTF-8" standalone="no"?>
<!DOCTYPE svg PUBLIC "-//W3C//DTD SVG 1.1//EN"
 "http://www.w3.org/Graphics/SVG/1.1/DTD/svg11.dtd">
<!-- Generated by graphviz version 12.1.2 (0)
 -->
<!-- Title: dependency&#45;cruiser output Pages: 1 -->
<svg width="873pt" height="1751pt"
 viewBox="0.00 0.00 872.50 1751.00" xmlns="http://www.w3.org/2000/svg" xmlns:xlink="http://www.w3.org/1999/xlink">
<g id="graph0" class="graph" transform="scale(1 1) rotate(0) translate(4 1747)">
<title>dependency&#45;cruiser output</title>
<polygon fill="white" stroke="none" points="-4,4 -4,-1747 868.5,-1747 868.5,4 -4,4"/>
<g id="clust1" class="cluster">
<title>cluster_src</title>
<path fill="#ffffff" stroke="black" stroke-width="2" d="M20,-8C20,-8 844.5,-8 844.5,-8 850.5,-8 856.5,-14 856.5,-20 856.5,-20 856.5,-1723 856.5,-1723 856.5,-1729 850.5,-1735 844.5,-1735 844.5,-1735 20,-1735 20,-1735 14,-1735 8,-1729 8,-1723 8,-1723 8,-20 8,-20 8,-14 14,-8 20,-8"/>
<text text-anchor="middle" x="432.25" y="-1722.45" font-family="Helvetica,sans-Serif" font-weight="bold" font-size="9.00">src</text>
</g>
<g id="clust2" class="cluster">
<title>cluster_src/components</title>
<path fill="#ffffff" stroke="black" stroke-width="2" d="M210,-423C210,-423 458.25,-423 458.25,-423 464.25,-423 470.25,-429 470.25,-435 470.25,-435 470.25,-1152 470.25,-1152 470.25,-1158 464.25,-1164 458.25,-1164 458.25,-1164 210,-1164 210,-1164 204,-1164 198,-1158 198,-1152 198,-1152 198,-435 198,-435 198,-429 204,-423 210,-423"/>
<text text-anchor="middle" x="334.12" y="-1151.45" font-family="Helvetica,sans-Serif" font-weight="bold" font-size="9.00">components</text>
</g>
<g id="clust3" class="cluster">
<title>cluster_src/components/ui</title>
<path fill="#ffffff" stroke="black" stroke-width="2" d="M350.75,-431C350.75,-431 450.25,-431 450.25,-431 456.25,-431 462.25,-437 462.25,-443 462.25,-443 462.25,-1125 462.25,-1125 462.25,-1131 456.25,-1137 450.25,-1137 450.25,-1137 350.75,-1137 350.75,-1137 344.75,-1137 338.75,-1131 338.75,-1125 338.75,-1125 338.75,-443 338.75,-443 338.75,-437 344.75,-431 350.75,-431"/>
<text text-anchor="middle" x="400.5" y="-1124.45" font-family="Helvetica,sans-Serif" font-weight="bold" font-size="9.00">ui</text>
</g>
<g id="clust4" class="cluster">
<title>cluster_src/hooks</title>
<path fill="#ffffff" stroke="black" stroke-width="2" d="M38.75,-16C38.75,-16 112,-16 112,-16 118,-16 124,-22 124,-28 124,-28 124,-121 124,-121 124,-127 118,-133 112,-133 112,-133 38.75,-133 38.75,-133 32.75,-133 26.75,-127 26.75,-121 26.75,-121 26.75,-28 26.75,-28 26.75,-22 32.75,-16 38.75,-16"/>
<text text-anchor="middle" x="75.38" y="-120.45" font-family="Helvetica,sans-Serif" font-weight="bold" font-size="9.00">hooks</text>
</g>
<g id="clust5" class="cluster">
<title>cluster_src/lib</title>
<path fill="#ffffff" stroke="black" stroke-width="2" d="M28,-141C28,-141 292.25,-141 292.25,-141 298.25,-141 304.25,-147 304.25,-153 304.25,-153 304.25,-403 304.25,-403 304.25,-409 298.25,-415 292.25,-415 292.25,-415 28,-415 28,-415 22,-415 16,-409 16,-403 16,-403 16,-153 16,-153 16,-147 22,-141 28,-141"/>
<text text-anchor="middle" x="160.12" y="-402.45" font-family="Helvetica,sans-Serif" font-weight="bold" font-size="9.00">lib</text>
</g>
<g id="clust6" class="cluster">
<title>cluster_src/lib/api</title>
<path fill="#ffffff" stroke="black" stroke-width="2" d="M36,-149C36,-149 284.25,-149 284.25,-149 290.25,-149 296.25,-155 296.25,-161 296.25,-161 296.25,-348 296.25,-348 296.25,-354 290.25,-360 284.25,-360 284.25,-360 36,-360 36,-360 30,-360 24,-354 24,-348 24,-348 24,-161 24,-161 24,-155 30,-149 36,-149"/>
<text text-anchor="middle" x="160.12" y="-347.45" font-family="Helvetica,sans-Serif" font-weight="bold" font-size="9.00">api</text>
</g>
<g id="clust7" class="cluster">
<title>cluster_src/lib/api/calls</title>
<path fill="#ffffff" stroke="black" stroke-width="2" d="M44,-157C44,-157 106.75,-157 106.75,-157 112.75,-157 118.75,-163 118.75,-169 118.75,-169 118.75,-293 118.75,-293 118.75,-299 112.75,-305 106.75,-305 106.75,-305 44,-305 44,-305 38,-305 32,-299 32,-293 32,-293 32,-169 32,-169 32,-163 38,-157 44,-157"/>
<text text-anchor="middle" x="75.38" y="-292.45" font-family="Helvetica,sans-Serif" font-weight="bold" font-size="9.00">calls</text>
</g>
<g id="clust8" class="cluster">
<title>cluster_src/pages</title>
<path fill="#ffffff" stroke="black" stroke-width="2" d="M228.62,-1172C228.62,-1172 836.5,-1172 836.5,-1172 842.5,-1172 848.5,-1178 848.5,-1184 848.5,-1184 848.5,-1633 848.5,-1633 848.5,-1639 842.5,-1645 836.5,-1645 836.5,-1645 228.62,-1645 228.62,-1645 222.62,-1645 216.62,-1639 216.62,-1633 216.62,-1633 216.62,-1184 216.62,-1184 216.62,-1178 222.62,-1172 228.62,-1172"/>
<text text-anchor="middle" x="532.56" y="-1632.45" font-family="Helvetica,sans-Serif" font-weight="bold" font-size="9.00">pages</text>
</g>
<g id="clust9" class="cluster">
<title>cluster_src/pages/Account</title>
<path fill="#ffffff" stroke="black" stroke-width="2" d="M236.62,-1180C236.62,-1180 472.5,-1180 472.5,-1180 478.5,-1180 484.5,-1186 484.5,-1192 484.5,-1192 484.5,-1320 484.5,-1320 484.5,-1326 478.5,-1332 472.5,-1332 472.5,-1332 236.62,-1332 236.62,-1332 230.62,-1332 224.62,-1326 224.62,-1320 224.62,-1320 224.62,-1192 224.62,-1192 224.62,-1186 230.62,-1180 236.62,-1180"/>
<text text-anchor="middle" x="354.56" y="-1319.45" font-family="Helvetica,sans-Serif" font-weight="bold" font-size="9.00">Account</text>
</g>
<g id="clust10" class="cluster">
<title>cluster_src/pages/Account/componenets</title>
<path fill="#ffffff" stroke="black" stroke-width="2" d="M336.5,-1188C336.5,-1188 464.5,-1188 464.5,-1188 470.5,-1188 476.5,-1194 476.5,-1200 476.5,-1200 476.5,-1293 476.5,-1293 476.5,-1299 470.5,-1305 464.5,-1305 464.5,-1305 336.5,-1305 336.5,-1305 330.5,-1305 324.5,-1299 324.5,-1293 324.5,-1293 324.5,-1200 324.5,-1200 324.5,-1194 330.5,-1188 336.5,-1188"/>
<text text-anchor="middle" x="400.5" y="-1292.45" font-family="Helvetica,sans-Serif" font-weight="bold" font-size="9.00">componenets</text>
</g>
<g id="clust11" class="cluster">
<title>cluster_src/pages/Login</title>
<path fill="#ffffff" stroke="black" stroke-width="2" d="M236.62,-1340C236.62,-1340 285.88,-1340 285.88,-1340 291.88,-1340 297.88,-1346 297.88,-1352 297.88,-1352 297.88,-1383 297.88,-1383 297.88,-1389 291.88,-1395 285.88,-1395 285.88,-1395 236.62,-1395 236.62,-1395 230.62,-1395 224.62,-1389 224.62,-1383 224.62,-1383 224.62,-1352 224.62,-1352 224.62,-1346 230.62,-1340 236.62,-1340"/>
<text text-anchor="middle" x="261.25" y="-1382.45" font-family="Helvetica,sans-Serif" font-weight="bold" font-size="9.00">Login</text>
</g>
<g id="clust12" class="cluster">
<title>cluster_src/pages/Register</title>
<path fill="#ffffff" stroke="black" stroke-width="2" d="M236.62,-1403C236.62,-1403 285.88,-1403 285.88,-1403 291.88,-1403 297.88,-1409 297.88,-1415 297.88,-1415 297.88,-1446 297.88,-1446 297.88,-1452 291.88,-1458 285.88,-1458 285.88,-1458 236.62,-1458 236.62,-1458 230.62,-1458 224.62,-1452 224.62,-1446 224.62,-1446 224.62,-1415 224.62,-1415 224.62,-1409 230.62,-1403 236.62,-1403"/>
<text text-anchor="middle" x="261.25" y="-1445.45" font-family="Helvetica,sans-Serif" font-weight="bold" font-size="9.00">Register</text>
</g>
<g id="clust13" class="cluster">
<title>cluster_src/pages/Tasks</title>
<path fill="#ffffff" stroke="black" stroke-width="2" d="M236.62,-1466C236.62,-1466 828.5,-1466 828.5,-1466 834.5,-1466 840.5,-1472 840.5,-1478 840.5,-1478 840.5,-1606 840.5,-1606 840.5,-1612 834.5,-1618 828.5,-1618 828.5,-1618 236.62,-1618 236.62,-1618 230.62,-1618 224.62,-1612 224.62,-1606 224.62,-1606 224.62,-1478 224.62,-1478 224.62,-1472 230.62,-1466 236.62,-1466"/>
<text text-anchor="middle" x="532.56" y="-1605.45" font-family="Helvetica,sans-Serif" font-weight="bold" font-size="9.00">Tasks</text>
</g>
<g id="clust14" class="cluster">
<title>cluster_src/pages/Tasks/componenets</title>
<path fill="#ffffff" stroke="black" stroke-width="2" d="M350.38,-1474C350.38,-1474 820.5,-1474 820.5,-1474 826.5,-1474 832.5,-1480 832.5,-1486 832.5,-1486 832.5,-1579 832.5,-1579 832.5,-1585 826.5,-1591 820.5,-1591 820.5,-1591 350.38,-1591 350.38,-1591 344.38,-1591 338.38,-1585 338.38,-1579 338.38,-1579 338.38,-1486 338.38,-1486 338.38,-1480 344.38,-1474 350.38,-1474"/>
<text text-anchor="middle" x="585.44" y="-1578.45" font-family="Helvetica,sans-Serif" font-weight="bold" font-size="9.00">componenets</text>
</g>
<g id="clust15" class="cluster">
<title>cluster_src/store</title>
<path fill="#ffffff" stroke="black" stroke-width="2" d="M231.75,-1653C231.75,-1653 290.75,-1653 290.75,-1653 296.75,-1653 302.75,-1659 302.75,-1665 302.75,-1665 302.75,-1696 302.75,-1696 302.75,-1702 296.75,-1708 290.75,-1708 290.75,-1708 231.75,-1708 231.75,-1708 225.75,-1708 219.75,-1702 219.75,-1696 219.75,-1696 219.75,-1665 219.75,-1665 219.75,-1659 225.75,-1653 231.75,-1653"/>
<text text-anchor="middle" x="261.25" y="-1695.45" font-family="Helvetica,sans-Serif" font-weight="bold" font-size="9.00">store</text>
</g>
<!-- src/App.tsx -->
<g id="node1" class="node">
<title>src/App.tsx</title>
<g id="a_node1"><a xlink:href="src/App.tsx" xlink:title="App.tsx">
<path fill="#bbfeff" stroke="black" d="M181.58,-1314.62C181.58,-1314.62 140.42,-1314.62 140.42,-1314.62 137.21,-1314.62 134,-1311.42 134,-1308.21 134,-1308.21 134,-1301.79 134,-1301.79 134,-1298.58 137.21,-1295.38 140.42,-1295.38 140.42,-1295.38 181.58,-1295.38 181.58,-1295.38 184.79,-1295.38 188,-1298.58 188,-1301.79 188,-1301.79 188,-1308.21 188,-1308.21 188,-1311.42 184.79,-1314.62 181.58,-1314.62"/>
<text text-anchor="start" x="143.75" y="-1302.08" font-family="Helvetica,sans-Serif" font-size="9.00">App.tsx</text>
</a>
</g>
</g>
<!-- src/components/loading.tsx -->
<g id="node2" class="node">
<title>src/components/loading.tsx</title>
<g id="a_node2"><a xlink:href="src/components/loading.tsx" xlink:title="loading.tsx">
<path fill="#bbfeff" stroke="black" d="M287.58,-888.62C287.58,-888.62 234.92,-888.62 234.92,-888.62 231.71,-888.62 228.5,-885.42 228.5,-882.21 228.5,-882.21 228.5,-875.79 228.5,-875.79 228.5,-872.58 231.71,-869.38 234.92,-869.38 234.92,-869.38 287.58,-869.38 287.58,-869.38 290.79,-869.38 294,-872.58 294,-875.79 294,-875.79 294,-882.21 294,-882.21 294,-885.42 290.79,-888.62 287.58,-888.62"/>
<text text-anchor="start" x="236.5" y="-876.08" font-family="Helvetica,sans-Serif" font-size="9.00">loading.tsx</text>
</a>
</g>
</g>
<!-- src/App.tsx&#45;&gt;src/components/loading.tsx -->
<g id="edge1" class="edge">
<title>src/App.tsx&#45;&gt;src/components/loading.tsx</title>
<path fill="none" stroke="#000000" stroke-width="2" stroke-opacity="0.200000" d="M185.7,-1295C187.37,-1293.54 188.85,-1291.88 190,-1290 201.49,-1271.24 184.21,-911.15 198,-894 203.38,-887.31 211.17,-883.3 219.44,-880.94"/>
<polygon fill="#000000" fill-opacity="0.200000" stroke="#000000" stroke-width="2" stroke-opacity="0.200000" points="219.76,-883.02 225.18,-879.7 218.87,-878.92 219.76,-883.02"/>
</g>
<!-- src/components/private&#45;route.tsx -->
<g id="node3" class="node">
<title>src/components/private&#45;route.tsx</title>
<g id="a_node3"><a xlink:href="src/components/private-route.tsx" xlink:title="private&#45;route.tsx">
<path fill="#bbfeff" stroke="black" d="M300.33,-857.62C300.33,-857.62 222.17,-857.62 222.17,-857.62 218.96,-857.62 215.75,-854.42 215.75,-851.21 215.75,-851.21 215.75,-844.79 215.75,-844.79 215.75,-841.58 218.96,-838.38 222.17,-838.38 222.17,-838.38 300.33,-838.38 300.33,-838.38 303.54,-838.38 306.75,-841.58 306.75,-844.79 306.75,-844.79 306.75,-851.21 306.75,-851.21 306.75,-854.42 303.54,-857.62 300.33,-857.62"/>
<text text-anchor="start" x="223.75" y="-845.08" font-family="Helvetica,sans-Serif" font-size="9.00">private&#45;route.tsx</text>
</a>
</g>
</g>
<!-- src/App.tsx&#45;&gt;src/components/private&#45;route.tsx -->
<g id="edge2" class="edge">
<title>src/App.tsx&#45;&gt;src/components/private&#45;route.tsx</title>
<path fill="none" stroke="#000000" stroke-width="2" stroke-opacity="0.200000" d="M185.7,-1295C187.37,-1293.54 188.85,-1291.88 190,-1290 202.38,-1269.76 183.14,-881.5 198,-863 200.69,-859.65 203.98,-856.98 207.63,-854.84"/>
<polygon fill="#000000" fill-opacity="0.200000" stroke="#000000" stroke-width="2" stroke-opacity="0.200000" points="208.24,-856.87 212.81,-852.45 206.48,-853.06 208.24,-856.87"/>
</g>
<!-- src/components/ui/toaster.tsx -->
<g id="node4" class="node">
<title>src/components/ui/toaster.tsx</title>
<g id="a_node4"><a xlink:href="src/components/ui/toaster.tsx" xlink:title="toaster.tsx">
<path fill="#bbfeff" stroke="black" d="M425.33,-489.62C425.33,-489.62 375.67,-489.62 375.67,-489.62 372.46,-489.62 369.25,-486.42 369.25,-483.21 369.25,-483.21 369.25,-476.79 369.25,-476.79 369.25,-473.58 372.46,-470.38 375.67,-470.38 375.67,-470.38 425.33,-470.38 425.33,-470.38 428.54,-470.38 431.75,-473.58 431.75,-476.79 431.75,-476.79 431.75,-483.21 431.75,-483.21 431.75,-486.42 428.54,-489.62 425.33,-489.62"/>
<text text-anchor="start" x="377.25" y="-477.07" font-family="Helvetica,sans-Serif" font-size="9.00">toaster.tsx</text>
</a>
</g>
</g>
<!-- src/App.tsx&#45;&gt;src/components/ui/toaster.tsx -->
<g id="edge3" class="edge">
<title>src/App.tsx&#45;&gt;src/components/ui/toaster.tsx</title>
<path fill="none" stroke="#000000" stroke-width="2" stroke-opacity="0.200000" d="M185.6,-1294.94C187.29,-1293.49 188.8,-1291.85 190,-1290 203.69,-1268.87 181.46,-1195.98 198,-1177 233.36,-1136.42 282.34,-1193.6 316.5,-1152 339.67,-1123.79 301.19,-523.09 324.5,-495 333.2,-484.52 346.96,-480.03 360.33,-478.41"/>
<polygon fill="#000000" fill-opacity="0.200000" stroke="#000000" stroke-width="2" stroke-opacity="0.200000" points="360.18,-480.53 365.99,-477.97 359.85,-476.35 360.18,-480.53"/>
</g>
<!-- src/pages/Account/index.tsx -->
<g id="node5" class="node">
<title>src/pages/Account/index.tsx</title>
<g id="a_node5"><a xlink:href="src/pages/Account/index.tsx" xlink:title="index.tsx">
<path fill="#bbfeff" stroke="black" d="M283.46,-1261.62C283.46,-1261.62 239.04,-1261.62 239.04,-1261.62 235.83,-1261.62 232.62,-1258.42 232.62,-1255.21 232.62,-1255.21 232.62,-1248.79 232.62,-1248.79 232.62,-1245.58 235.83,-1242.38 239.04,-1242.38 239.04,-1242.38 283.46,-1242.38 283.46,-1242.38 286.67,-1242.38 289.88,-1245.58 289.88,-1248.79 289.88,-1248.79 289.88,-1255.21 289.88,-1255.21 289.88,-1258.42 286.67,-1261.62 283.46,-1261.62"/>
<text text-anchor="start" x="240.62" y="-1249.08" font-family="Helvetica,sans-Serif" font-size="9.00">index.tsx</text>
</a>
</g>
</g>
<!-- src/App.tsx&#45;&gt;src/pages/Account/index.tsx -->
<g id="edge4" class="edge">
<title>src/App.tsx&#45;&gt;src/pages/Account/index.tsx</title>
<path fill="none" stroke="#000000" stroke-width="2" stroke-opacity="0.200000" d="M180.68,-1295.01C183.79,-1293.34 186.99,-1291.62 190,-1290 204.56,-1282.16 220.8,-1273.38 233.99,-1266.24"/>
<polygon fill="#000000" fill-opacity="0.200000" stroke="#000000" stroke-width="2" stroke-opacity="0.200000" points="234.84,-1268.17 239.11,-1263.46 232.83,-1264.47 234.84,-1268.17"/>
</g>
<!-- src/pages/Login/index.tsx -->
<g id="node6" class="node">
<title>src/pages/Login/index.tsx</title>
<g id="a_node6"><a xlink:href="src/pages/Login/index.tsx" xlink:title="index.tsx">
<path fill="#bbfeff" stroke="black" d="M283.46,-1367.62C283.46,-1367.62 239.04,-1367.62 239.04,-1367.62 235.83,-1367.62 232.62,-1364.42 232.62,-1361.21 232.62,-1361.21 232.62,-1354.79 232.62,-1354.79 232.62,-1351.58 235.83,-1348.38 239.04,-1348.38 239.04,-1348.38 283.46,-1348.38 283.46,-1348.38 286.67,-1348.38 289.88,-1351.58 289.88,-1354.79 289.88,-1354.79 289.88,-1361.21 289.88,-1361.21 289.88,-1364.42 286.67,-1367.62 283.46,-1367.62"/>
<text text-anchor="start" x="240.62" y="-1355.08" font-family="Helvetica,sans-Serif" font-size="9.00">index.tsx</text>
</a>
</g>
</g>
<!-- src/App.tsx&#45;&gt;src/pages/Login/index.tsx -->
<g id="edge5" class="edge">
<title>src/App.tsx&#45;&gt;src/pages/Login/index.tsx</title>
<path fill="none" stroke="#000000" stroke-width="2" stroke-opacity="0.200000" d="M172,-1314.94C178.86,-1321.34 188.42,-1329.46 198,-1335 206.09,-1339.68 215.3,-1343.7 224.11,-1347.01"/>
<polygon fill="#000000" fill-opacity="0.200000" stroke="#000000" stroke-width="2" stroke-opacity="0.200000" points="223.17,-1348.91 229.53,-1348.95 224.59,-1344.95 223.17,-1348.91"/>
</g>
<!-- src/pages/Register/index.tsx -->
<g id="node7" class="node">
<title>src/pages/Register/index.tsx</title>
<g id="a_node7"><a xlink:href="src/pages/Register/index.tsx" xlink:title="index.tsx">
<path fill="#bbfeff" stroke="black" d="M283.46,-1430.62C283.46,-1430.62 239.04,-1430.62 239.04,-1430.62 235.83,-1430.62 232.62,-1427.42 232.62,-1424.21 232.62,-1424.21 232.62,-1417.79 232.62,-1417.79 232.62,-1414.58 235.83,-1411.38 239.04,-1411.38 239.04,-1411.38 283.46,-1411.38 283.46,-1411.38 286.67,-1411.38 289.88,-1414.58 289.88,-1417.79 289.88,-1417.79 289.88,-1424.21 289.88,-1424.21 289.88,-1427.42 286.67,-1430.62 283.46,-1430.62"/>
<text text-anchor="start" x="240.62" y="-1418.08" font-family="Helvetica,sans-Serif" font-size="9.00">index.tsx</text>
</a>
</g>
</g>
<!-- src/App.tsx&#45;&gt;src/pages/Register/index.tsx -->
<g id="edge6" class="edge">
<title>src/App.tsx&#45;&gt;src/pages/Register/index.tsx</title>
<path fill="none" stroke="#000000" stroke-width="2" stroke-opacity="0.200000" d="M163.14,-1314.87C165.82,-1333.6 174.19,-1374.56 198,-1398 205.1,-1404.99 214.51,-1409.89 223.86,-1413.3"/>
<polygon fill="#000000" fill-opacity="0.200000" stroke="#000000" stroke-width="2" stroke-opacity="0.200000" points="223.13,-1415.27 229.48,-1415.11 224.41,-1411.27 223.13,-1415.27"/>
</g>
<!-- src/pages/Tasks/index.tsx -->
<g id="node8" class="node">
<title>src/pages/Tasks/index.tsx</title>
<g id="a_node8"><a xlink:href="src/pages/Tasks/index.tsx" xlink:title="index.tsx">
<path fill="#bbfeff" stroke="black" d="M283.46,-1516.62C283.46,-1516.62 239.04,-1516.62 239.04,-1516.62 235.83,-1516.62 232.62,-1513.42 232.62,-1510.21 232.62,-1510.21 232.62,-1503.79 232.62,-1503.79 232.62,-1500.58 235.83,-1497.38 239.04,-1497.38 239.04,-1497.38 283.46,-1497.38 283.46,-1497.38 286.67,-1497.38 289.88,-1500.58 289.88,-1503.79 289.88,-1503.79 289.88,-1510.21 289.88,-1510.21 289.88,-1513.42 286.67,-1516.62 283.46,-1516.62"/>
<text text-anchor="start" x="240.62" y="-1504.08" font-family="Helvetica,sans-Serif" font-size="9.00">index.tsx</text>
</a>
</g>
</g>
<!-- src/App.tsx&#45;&gt;src/pages/Tasks/index.tsx -->
<g id="edge7" class="edge">
<title>src/App.tsx&#45;&gt;src/pages/Tasks/index.tsx</title>
<path fill="none" stroke="#000000" stroke-width="2" stroke-opacity="0.200000" d="M161.99,-1315.05C162.42,-1341.29 166.59,-1413.12 198,-1461 206.55,-1474.03 220.12,-1484.69 232.41,-1492.46"/>
<polygon fill="#000000" fill-opacity="0.200000" stroke="#000000" stroke-width="2" stroke-opacity="0.200000" points="231.02,-1494.07 237.25,-1495.36 233.18,-1490.47 231.02,-1494.07"/>
</g>
<!-- src/store/useStore.ts -->
<g id="node9" class="node">
<title>src/store/useStore.ts</title>
<g id="a_node9"><a xlink:href="src/store/useStore.ts" xlink:title="useStore.ts">
<path fill="#ddfeff" stroke="black" d="M288.33,-1680.62C288.33,-1680.62 234.17,-1680.62 234.17,-1680.62 230.96,-1680.62 227.75,-1677.42 227.75,-1674.21 227.75,-1674.21 227.75,-1667.79 227.75,-1667.79 227.75,-1664.58 230.96,-1661.38 234.17,-1661.38 234.17,-1661.38 288.33,-1661.38 288.33,-1661.38 291.54,-1661.38 294.75,-1664.58 294.75,-1667.79 294.75,-1667.79 294.75,-1674.21 294.75,-1674.21 294.75,-1677.42 291.54,-1680.62 288.33,-1680.62"/>
<text text-anchor="start" x="235.75" y="-1668.08" font-family="Helvetica,sans-Serif" font-size="9.00">useStore.ts</text>
</a>
</g>
</g>
<!-- src/App.tsx&#45;&gt;src/store/useStore.ts -->
<g id="edge8" class="edge">
<title>src/App.tsx&#45;&gt;src/store/useStore.ts</title>
<path fill="none" stroke="#000000" stroke-width="2" stroke-opacity="0.200000" d="M162.13,-1315.07C162.91,-1362.82 167.95,-1566.48 198,-1621 206.11,-1635.71 220.5,-1647.7 233.4,-1656.25"/>
<polygon fill="#000000" fill-opacity="0.200000" stroke="#000000" stroke-width="2" stroke-opacity="0.200000" points="232,-1657.85 238.2,-1659.27 234.24,-1654.3 232,-1657.85"/>
</g>
<!-- src/pages/Account/componenets/ChangePasswordForm.tsx -->
<g id="node53" class="node">
<title>src/pages/Account/componenets/ChangePasswordForm.tsx</title>
<g id="a_node53"><a xlink:href="src/pages/Account/componenets/ChangePasswordForm.tsx" xlink:title="ChangePasswordForm.tsx">
<path fill="#bbfeff" stroke="black" d="M460.21,-1215.62C460.21,-1215.62 340.79,-1215.62 340.79,-1215.62 337.58,-1215.62 334.38,-1212.42 334.38,-1209.21 334.38,-1209.21 334.38,-1202.79 334.38,-1202.79 334.38,-1199.58 337.58,-1196.38 340.79,-1196.38 340.79,-1196.38 460.21,-1196.38 460.21,-1196.38 463.42,-1196.38 466.62,-1199.58 466.62,-1202.79 466.62,-1202.79 466.62,-1209.21 466.62,-1209.21 466.62,-1212.42 463.42,-1215.62 460.21,-1215.62"/>
<text text-anchor="start" x="342.38" y="-1203.08" font-family="Helvetica,sans-Serif" font-size="9.00">ChangePasswordForm.tsx</text>
</a>
</g>
</g>
<!-- src/pages/Account/index.tsx&#45;&gt;src/pages/Account/componenets/ChangePasswordForm.tsx -->
<g id="edge21" class="edge">
<title>src/pages/Account/index.tsx&#45;&gt;src/pages/Account/componenets/ChangePasswordForm.tsx</title>
<path fill="none" stroke="#000000" stroke-width="2" stroke-opacity="0.200000" d="M290.35,-1249.53C299.49,-1247.56 309.16,-1244.08 316.5,-1238 322.93,-1232.67 317.92,-1226.15 324.5,-1221 325.14,-1220.5 325.79,-1220.01 326.46,-1219.54"/>
<polygon fill="#000000" fill-opacity="0.200000" stroke="#000000" stroke-width="2" stroke-opacity="0.200000" points="327.3,-1221.49 331.37,-1216.6 325.14,-1217.88 327.3,-1221.49"/>
</g>
<!-- src/pages/Account/componenets/UpdateUserProfileForm.tsx -->
<g id="node54" class="node">
<title>src/pages/Account/componenets/UpdateUserProfileForm.tsx</title>
<g id="a_node54"><a xlink:href="src/pages/Account/componenets/UpdateUserProfileForm.tsx" xlink:title="UpdateUserProfileForm.tsx">
<path fill="#bbfeff" stroke="black" d="M462.08,-1246.62C462.08,-1246.62 338.92,-1246.62 338.92,-1246.62 335.71,-1246.62 332.5,-1243.42 332.5,-1240.21 332.5,-1240.21 332.5,-1233.79 332.5,-1233.79 332.5,-1230.58 335.71,-1227.38 338.92,-1227.38 338.92,-1227.38 462.08,-1227.38 462.08,-1227.38 465.29,-1227.38 468.5,-1230.58 468.5,-1233.79 468.5,-1233.79 468.5,-1240.21 468.5,-1240.21 468.5,-1243.42 465.29,-1246.62 462.08,-1246.62"/>
<text text-anchor="start" x="340.5" y="-1234.08" font-family="Helvetica,sans-Serif" font-size="9.00">UpdateUserProfileForm.tsx</text>
</a>
</g>
</g>
<!-- src/pages/Account/index.tsx&#45;&gt;src/pages/Account/componenets/UpdateUserProfileForm.tsx -->
<g id="edge22" class="edge">
<title>src/pages/Account/index.tsx&#45;&gt;src/pages/Account/componenets/UpdateUserProfileForm.tsx</title>
<path fill="none" stroke="#000000" stroke-width="2" stroke-opacity="0.200000" d="M290.36,-1248.93C300.04,-1247.87 311.41,-1246.63 323.08,-1245.35"/>
<polygon fill="#000000" fill-opacity="0.200000" stroke="#000000" stroke-width="2" stroke-opacity="0.200000" points="323.29,-1247.44 329.03,-1244.7 322.84,-1243.27 323.29,-1247.44"/>
</g>
<!-- src/pages/Account/componenets/UserProfile.tsx -->
<g id="node55" class="node">
<title>src/pages/Account/componenets/UserProfile.tsx</title>
<g id="a_node55"><a xlink:href="src/pages/Account/componenets/UserProfile.tsx" xlink:title="UserProfile.tsx">
<path fill="#bbfeff" stroke="black" d="M433.96,-1277.62C433.96,-1277.62 367.04,-1277.62 367.04,-1277.62 363.83,-1277.62 360.62,-1274.42 360.62,-1271.21 360.62,-1271.21 360.62,-1264.79 360.62,-1264.79 360.62,-1261.58 363.83,-1258.38 367.04,-1258.38 367.04,-1258.38 433.96,-1258.38 433.96,-1258.38 437.17,-1258.38 440.38,-1261.58 440.38,-1264.79 440.38,-1264.79 440.38,-1271.21 440.38,-1271.21 440.38,-1274.42 437.17,-1277.62 433.96,-1277.62"/>
<text text-anchor="start" x="368.62" y="-1265.08" font-family="Helvetica,sans-Serif" font-size="9.00">UserProfile.tsx</text>
</a>
</g>
</g>
<!-- src/pages/Account/index.tsx&#45;&gt;src/pages/Account/componenets/UserProfile.tsx -->
<g id="edge23" class="edge">
<title>src/pages/Account/index.tsx&#45;&gt;src/pages/Account/componenets/UserProfile.tsx</title>
<path fill="none" stroke="#000000" stroke-width="2" stroke-opacity="0.200000" d="M290.36,-1255.28C307.91,-1257.32 330.98,-1260.01 351.39,-1262.39"/>
<polygon fill="#000000" fill-opacity="0.200000" stroke="#000000" stroke-width="2" stroke-opacity="0.200000" points="351.04,-1264.46 357.24,-1263.07 351.52,-1260.29 351.04,-1264.46"/>
</g>
<!-- src/pages/Tasks/componenets/CreateTaskDialog.tsx -->
<g id="node58" class="node">
<title>src/pages/Tasks/componenets/CreateTaskDialog.tsx</title>
<g id="a_node58"><a xlink:href="src/pages/Tasks/componenets/CreateTaskDialog.tsx" xlink:title="CreateTaskDialog.tsx">
<path fill="#bbfeff" stroke="black" d="M448.21,-1501.62C448.21,-1501.62 352.79,-1501.62 352.79,-1501.62 349.58,-1501.62 346.38,-1498.42 346.38,-1495.21 346.38,-1495.21 346.38,-1488.79 346.38,-1488.79 346.38,-1485.58 349.58,-1482.38 352.79,-1482.38 352.79,-1482.38 448.21,-1482.38 448.21,-1482.38 451.42,-1482.38 454.62,-1485.58 454.62,-1488.79 454.62,-1488.79 454.62,-1495.21 454.62,-1495.21 454.62,-1498.42 451.42,-1501.62 448.21,-1501.62"/>
<text text-anchor="start" x="354.38" y="-1489.08" font-family="Helvetica,sans-Serif" font-size="9.00">CreateTaskDialog.tsx</text>
</a>
</g>
</g>
<!-- src/pages/Tasks/index.tsx&#45;&gt;src/pages/Tasks/componenets/CreateTaskDialog.tsx -->
<g id="edge30" class="edge">
<title>src/pages/Tasks/index.tsx&#45;&gt;src/pages/Tasks/componenets/CreateTaskDialog.tsx</title>
<path fill="none" stroke="#000000" stroke-width="2" stroke-opacity="0.200000" d="M290.36,-1503.93C303.98,-1502.44 320.92,-1500.59 337.37,-1498.79"/>
<polygon fill="#000000" fill-opacity="0.200000" stroke="#000000" stroke-width="2" stroke-opacity="0.200000" points="337.15,-1500.93 342.89,-1498.19 336.7,-1496.75 337.15,-1500.93"/>
</g>
<!-- src/pages/Tasks/componenets/TaskFilters.tsx -->
<g id="node61" class="node">
<title>src/pages/Tasks/componenets/TaskFilters.tsx</title>
<g id="a_node61"><a xlink:href="src/pages/Tasks/componenets/TaskFilters.tsx" xlink:title="TaskFilters.tsx">
<path fill="#bbfeff" stroke="black" d="M432.83,-1532.62C432.83,-1532.62 368.17,-1532.62 368.17,-1532.62 364.96,-1532.62 361.75,-1529.42 361.75,-1526.21 361.75,-1526.21 361.75,-1519.79 361.75,-1519.79 361.75,-1516.58 364.96,-1513.38 368.17,-1513.38 368.17,-1513.38 432.83,-1513.38 432.83,-1513.38 436.04,-1513.38 439.25,-1516.58 439.25,-1519.79 439.25,-1519.79 439.25,-1526.21 439.25,-1526.21 439.25,-1529.42 436.04,-1532.62 432.83,-1532.62"/>
<text text-anchor="start" x="369.75" y="-1520.08" font-family="Helvetica,sans-Serif" font-size="9.00">TaskFilters.tsx</text>
</a>
</g>
</g>
<!-- src/pages/Tasks/index.tsx&#45;&gt;src/pages/Tasks/componenets/TaskFilters.tsx -->
<g id="edge31" class="edge">
<title>src/pages/Tasks/index.tsx&#45;&gt;src/pages/Tasks/componenets/TaskFilters.tsx</title>
<path fill="none" stroke="#000000" stroke-width="2" stroke-opacity="0.200000" d="M290.36,-1510.28C308.19,-1512.36 331.7,-1515.1 352.34,-1517.5"/>
<polygon fill="#000000" fill-opacity="0.200000" stroke="#000000" stroke-width="2" stroke-opacity="0.200000" points="352.08,-1519.59 358.28,-1518.19 352.56,-1515.41 352.08,-1519.59"/>
</g>
<!-- src/pages/Tasks/componenets/TaskList.tsx -->
<g id="node62" class="node">
<title>src/pages/Tasks/componenets/TaskList.tsx</title>
<g id="a_node62"><a xlink:href="src/pages/Tasks/componenets/TaskList.tsx" xlink:title="TaskList.tsx">
<path fill="#bbfeff" stroke="black" d="M427.58,-1563.62C427.58,-1563.62 373.42,-1563.62 373.42,-1563.62 370.21,-1563.62 367,-1560.42 367,-1557.21 367,-1557.21 367,-1550.79 367,-1550.79 367,-1547.58 370.21,-1544.38 373.42,-1544.38 373.42,-1544.38 427.58,-1544.38 427.58,-1544.38 430.79,-1544.38 434,-1547.58 434,-1550.79 434,-1550.79 434,-1557.21 434,-1557.21 434,-1560.42 430.79,-1563.62 427.58,-1563.62"/>
<text text-anchor="start" x="375" y="-1551.08" font-family="Helvetica,sans-Serif" font-size="9.00">TaskList.tsx</text>
</a>
</g>
</g>
<!-- src/pages/Tasks/index.tsx&#45;&gt;src/pages/Tasks/componenets/TaskList.tsx -->
<g id="edge32" class="edge">
<title>src/pages/Tasks/index.tsx&#45;&gt;src/pages/Tasks/componenets/TaskList.tsx</title>
<path fill="none" stroke="#000000" stroke-width="2" stroke-opacity="0.200000" d="M278.6,-1517C290.84,-1524.09 308.21,-1533.31 324.5,-1539 335.18,-1542.73 347.06,-1545.64 358.16,-1547.86"/>
<polygon fill="#000000" fill-opacity="0.200000" stroke="#000000" stroke-width="2" stroke-opacity="0.200000" points="357.6,-1549.89 363.88,-1548.94 358.37,-1545.77 357.6,-1549.89"/>
</g>
<!-- src/components/app&#45;drawer.tsx -->
<g id="node10" class="node">
<title>src/components/app&#45;drawer.tsx</title>
<g id="a_node10"><a xlink:href="src/components/app-drawer.tsx" xlink:title="app&#45;drawer.tsx">
<path fill="#ccffcc" stroke="black" d="M296.21,-919.62C296.21,-919.62 226.29,-919.62 226.29,-919.62 223.08,-919.62 219.88,-916.42 219.88,-913.21 219.88,-913.21 219.88,-906.79 219.88,-906.79 219.88,-903.58 223.08,-900.38 226.29,-900.38 226.29,-900.38 296.21,-900.38 296.21,-900.38 299.42,-900.38 302.62,-903.58 302.62,-906.79 302.62,-906.79 302.62,-913.21 302.62,-913.21 302.62,-916.42 299.42,-919.62 296.21,-919.62"/>
<text text-anchor="start" x="227.88" y="-907.08" font-family="Helvetica,sans-Serif" font-size="9.00">app&#45;drawer.tsx</text>
</a>
</g>
</g>
<!-- src/components/app&#45;sidebar.tsx -->
<g id="node11" class="node">
<title>src/components/app&#45;sidebar.tsx</title>
<g id="a_node11"><a xlink:href="src/components/app-sidebar.tsx" xlink:title="app&#45;sidebar.tsx">
<path fill="#bbfeff" stroke="black" d="M296.96,-950.62C296.96,-950.62 225.54,-950.62 225.54,-950.62 222.33,-950.62 219.12,-947.42 219.12,-944.21 219.12,-944.21 219.12,-937.79 219.12,-937.79 219.12,-934.58 222.33,-931.38 225.54,-931.38 225.54,-931.38 296.96,-931.38 296.96,-931.38 300.17,-931.38 303.38,-934.58 303.38,-937.79 303.38,-937.79 303.38,-944.21 303.38,-944.21 303.38,-947.42 300.17,-950.62 296.96,-950.62"/>
<text text-anchor="start" x="227.12" y="-938.08" font-family="Helvetica,sans-Serif" font-size="9.00">app&#45;sidebar.tsx</text>
</a>
</g>
</g>
<!-- src/components/ui/button.tsx -->
<g id="node12" class="node">
<title>src/components/ui/button.tsx</title>
<g id="a_node12"><a xlink:href="src/components/ui/button.tsx" xlink:title="button.tsx">
<path fill="#bbfeff" stroke="black" d="M425.71,-458.62C425.71,-458.62 375.29,-458.62 375.29,-458.62 372.08,-458.62 368.88,-455.42 368.88,-452.21 368.88,-452.21 368.88,-445.79 368.88,-445.79 368.88,-442.58 372.08,-439.38 375.29,-439.38 375.29,-439.38 425.71,-439.38 425.71,-439.38 428.92,-439.38 432.12,-442.58 432.12,-445.79 432.12,-445.79 432.12,-452.21 432.12,-452.21 432.12,-455.42 428.92,-458.62 425.71,-458.62"/>
<text text-anchor="start" x="376.88" y="-446.07" font-family="Helvetica,sans-Serif" font-size="9.00">button.tsx</text>
</a>
</g>
</g>
<!-- src/components/app&#45;sidebar.tsx&#45;&gt;src/components/ui/button.tsx -->
<g id="edge9" class="edge">
<title>src/components/app&#45;sidebar.tsx&#45;&gt;src/components/ui/button.tsx</title>
<path fill="none" stroke="#000000" stroke-width="2" stroke-opacity="0.200000" d="M303.71,-935.76C308.67,-933.48 313.15,-930.33 316.5,-926 332.22,-905.71 308.05,-483.71 324.5,-464 333.07,-453.73 346.51,-449.22 359.66,-447.53"/>
<polygon fill="#000000" fill-opacity="0.200000" stroke="#000000" stroke-width="2" stroke-opacity="0.200000" points="359.84,-449.62 365.64,-447.02 359.49,-445.43 359.84,-449.62"/>
</g>
<!-- src/components/edit&#45;list&#45;form.tsx -->
<g id="node13" class="node">
<title>src/components/edit&#45;list&#45;form.tsx</title>
<g id="a_node13"><a xlink:href="src/components/edit-list-form.tsx" xlink:title="edit&#45;list&#45;form.tsx">
<path fill="#ccffcc" stroke="black" d="M299.58,-981.62C299.58,-981.62 222.92,-981.62 222.92,-981.62 219.71,-981.62 216.5,-978.42 216.5,-975.21 216.5,-975.21 216.5,-968.79 216.5,-968.79 216.5,-965.58 219.71,-962.38 222.92,-962.38 222.92,-962.38 299.58,-962.38 299.58,-962.38 302.79,-962.38 306,-965.58 306,-968.79 306,-968.79 306,-975.21 306,-975.21 306,-978.42 302.79,-981.62 299.58,-981.62"/>
<text text-anchor="start" x="224.5" y="-969.08" font-family="Helvetica,sans-Serif" font-size="9.00">edit&#45;list&#45;form.tsx</text>
</a>
</g>
</g>
<!-- src/components/login&#45;form.tsx -->
<g id="node14" class="node">
<title>src/components/login&#45;form.tsx</title>
<g id="a_node14"><a xlink:href="src/components/login-form.tsx" xlink:title="login&#45;form.tsx">
<path fill="#ccffcc" stroke="black" d="M293.96,-1012.62C293.96,-1012.62 228.54,-1012.62 228.54,-1012.62 225.33,-1012.62 222.12,-1009.42 222.12,-1006.21 222.12,-1006.21 222.12,-999.79 222.12,-999.79 222.12,-996.58 225.33,-993.38 228.54,-993.38 228.54,-993.38 293.96,-993.38 293.96,-993.38 297.17,-993.38 300.38,-996.58 300.38,-999.79 300.38,-999.79 300.38,-1006.21 300.38,-1006.21 300.38,-1009.42 297.17,-1012.62 293.96,-1012.62"/>
<text text-anchor="start" x="230.12" y="-1000.08" font-family="Helvetica,sans-Serif" font-size="9.00">login&#45;form.tsx</text>
</a>
</g>
</g>
<!-- src/components/no&#45;pending&#45;tasks.tsx -->
<g id="node15" class="node">
<title>src/components/no&#45;pending&#45;tasks.tsx</title>
<g id="a_node15"><a xlink:href="src/components/no-pending-tasks.tsx" xlink:title="no&#45;pending&#45;tasks.tsx">
<path fill="#ccffcc" stroke="black" d="M310.08,-1043.62C310.08,-1043.62 212.42,-1043.62 212.42,-1043.62 209.21,-1043.62 206,-1040.42 206,-1037.21 206,-1037.21 206,-1030.79 206,-1030.79 206,-1027.58 209.21,-1024.38 212.42,-1024.38 212.42,-1024.38 310.08,-1024.38 310.08,-1024.38 313.29,-1024.38 316.5,-1027.58 316.5,-1030.79 316.5,-1030.79 316.5,-1037.21 316.5,-1037.21 316.5,-1040.42 313.29,-1043.62 310.08,-1043.62"/>
<text text-anchor="start" x="214" y="-1031.08" font-family="Helvetica,sans-Serif" font-size="9.00">no&#45;pending&#45;tasks.tsx</text>
</a>
</g>
</g>
<!-- src/components/register&#45;form.tsx -->
<g id="node16" class="node">
<title>src/components/register&#45;form.tsx</title>
<g id="a_node16"><a xlink:href="src/components/register-form.tsx" xlink:title="register&#45;form.tsx">
<path fill="#ccffcc" stroke="black" d="M300.33,-1074.62C300.33,-1074.62 222.17,-1074.62 222.17,-1074.62 218.96,-1074.62 215.75,-1071.42 215.75,-1068.21 215.75,-1068.21 215.75,-1061.79 215.75,-1061.79 215.75,-1058.58 218.96,-1055.38 222.17,-1055.38 222.17,-1055.38 300.33,-1055.38 300.33,-1055.38 303.54,-1055.38 306.75,-1058.58 306.75,-1061.79 306.75,-1061.79 306.75,-1068.21 306.75,-1068.21 306.75,-1071.42 303.54,-1074.62 300.33,-1074.62"/>
<text text-anchor="start" x="223.75" y="-1062.08" font-family="Helvetica,sans-Serif" font-size="9.00">register&#45;form.tsx</text>
</a>
</g>
</g>
<!-- src/components/theme&#45;provider.tsx -->
<g id="node17" class="node">
<title>src/components/theme&#45;provider.tsx</title>
<g id="a_node17"><a xlink:href="src/components/theme-provider.tsx" xlink:title="theme&#45;provider.tsx">
<path fill="#ccffcc" stroke="black" d="M305.21,-1105.62C305.21,-1105.62 217.29,-1105.62 217.29,-1105.62 214.08,-1105.62 210.88,-1102.42 210.88,-1099.21 210.88,-1099.21 210.88,-1092.79 210.88,-1092.79 210.88,-1089.58 214.08,-1086.38 217.29,-1086.38 217.29,-1086.38 305.21,-1086.38 305.21,-1086.38 308.42,-1086.38 311.62,-1089.58 311.62,-1092.79 311.62,-1092.79 311.62,-1099.21 311.62,-1099.21 311.62,-1102.42 308.42,-1105.62 305.21,-1105.62"/>
<text text-anchor="start" x="218.88" y="-1093.08" font-family="Helvetica,sans-Serif" font-size="9.00">theme&#45;provider.tsx</text>
</a>
</g>
</g>
<!-- src/components/theme&#45;toggle.tsx -->
<g id="node18" class="node">
<title>src/components/theme&#45;toggle.tsx</title>
<g id="a_node18"><a xlink:href="src/components/theme-toggle.tsx" xlink:title="theme&#45;toggle.tsx">
<path fill="#ccffcc" stroke="black" d="M301.46,-1136.62C301.46,-1136.62 221.04,-1136.62 221.04,-1136.62 217.83,-1136.62 214.62,-1133.42 214.62,-1130.21 214.62,-1130.21 214.62,-1123.79 214.62,-1123.79 214.62,-1120.58 217.83,-1117.38 221.04,-1117.38 221.04,-1117.38 301.46,-1117.38 301.46,-1117.38 304.67,-1117.38 307.88,-1120.58 307.88,-1123.79 307.88,-1123.79 307.88,-1130.21 307.88,-1130.21 307.88,-1133.42 304.67,-1136.62 301.46,-1136.62"/>
<text text-anchor="start" x="222.62" y="-1124.08" font-family="Helvetica,sans-Serif" font-size="9.00">theme&#45;toggle.tsx</text>
</a>
</g>
</g>
<!-- src/components/ui/accordion.tsx -->
<g id="node19" class="node">
<title>src/components/ui/accordion.tsx</title>
<g id="a_node19"><a xlink:href="src/components/ui/accordion.tsx" xlink:title="accordion.tsx">
<path fill="#ccffcc" stroke="black" d="M432.46,-520.62C432.46,-520.62 368.54,-520.62 368.54,-520.62 365.33,-520.62 362.12,-517.42 362.12,-514.21 362.12,-514.21 362.12,-507.79 362.12,-507.79 362.12,-504.58 365.33,-501.38 368.54,-501.38 368.54,-501.38 432.46,-501.38 432.46,-501.38 435.67,-501.38 438.88,-504.58 438.88,-507.79 438.88,-507.79 438.88,-514.21 438.88,-514.21 438.88,-517.42 435.67,-520.62 432.46,-520.62"/>
<text text-anchor="start" x="370.12" y="-508.07" font-family="Helvetica,sans-Serif" font-size="9.00">accordion.tsx</text>
</a>
</g>
</g>
<!-- src/components/ui/avatar.tsx -->
<g id="node20" class="node">
<title>src/components/ui/avatar.tsx</title>
<g id="a_node20"><a xlink:href="src/components/ui/avatar.tsx" xlink:title="avatar.tsx">
<path fill="#ccffcc" stroke="black" d="M423.83,-551.62C423.83,-551.62 377.17,-551.62 377.17,-551.62 373.96,-551.62 370.75,-548.42 370.75,-545.21 370.75,-545.21 370.75,-538.79 370.75,-538.79 370.75,-535.58 373.96,-532.38 377.17,-532.38 377.17,-532.38 423.83,-532.38 423.83,-532.38 427.04,-532.38 430.25,-535.58 430.25,-538.79 430.25,-538.79 430.25,-545.21 430.25,-545.21 430.25,-548.42 427.04,-551.62 423.83,-551.62"/>
<text text-anchor="start" x="378.75" y="-539.08" font-family="Helvetica,sans-Serif" font-size="9.00">avatar.tsx</text>
</a>
</g>
</g>
<!-- src/components/ui/badge.tsx -->
<g id="node21" class="node">
<title>src/components/ui/badge.tsx</title>
<g id="a_node21"><a xlink:href="src/components/ui/badge.tsx" xlink:title="badge.tsx">
<path fill="#ccffcc" stroke="black" d="M424.58,-582.62C424.58,-582.62 376.42,-582.62 376.42,-582.62 373.21,-582.62 370,-579.42 370,-576.21 370,-576.21 370,-569.79 370,-569.79 370,-566.58 373.21,-563.38 376.42,-563.38 376.42,-563.38 424.58,-563.38 424.58,-563.38 427.79,-563.38 431,-566.58 431,-569.79 431,-569.79 431,-576.21 431,-576.21 431,-579.42 427.79,-582.62 424.58,-582.62"/>
<text text-anchor="start" x="378" y="-570.08" font-family="Helvetica,sans-Serif" font-size="9.00">badge.tsx</text>
</a>
</g>
</g>
<!-- src/components/ui/card.tsx -->
<g id="node22" class="node">
<title>src/components/ui/card.tsx</title>
<g id="a_node22"><a xlink:href="src/components/ui/card.tsx" xlink:title="card.tsx">
<path fill="#ccffcc" stroke="black" d="M421.08,-613.62C421.08,-613.62 379.92,-613.62 379.92,-613.62 376.71,-613.62 373.5,-610.42 373.5,-607.21 373.5,-607.21 373.5,-600.79 373.5,-600.79 373.5,-597.58 376.71,-594.38 379.92,-594.38 379.92,-594.38 421.08,-594.38 421.08,-594.38 424.29,-594.38 427.5,-597.58 427.5,-600.79 427.5,-600.79 427.5,-607.21 427.5,-607.21 427.5,-610.42 424.29,-613.62 421.08,-613.62"/>
<text text-anchor="start" x="382.12" y="-601.08" font-family="Helvetica,sans-Serif" font-size="9.00">card.tsx</text>
</a>
</g>
</g>
<!-- src/components/ui/checkbox.tsx -->
<g id="node23" class="node">
<title>src/components/ui/checkbox.tsx</title>
<g id="a_node23"><a xlink:href="src/components/ui/checkbox.tsx" xlink:title="checkbox.tsx">
<path fill="#ccffcc" stroke="black" d="M432.08,-644.62C432.08,-644.62 368.92,-644.62 368.92,-644.62 365.71,-644.62 362.5,-641.42 362.5,-638.21 362.5,-638.21 362.5,-631.79 362.5,-631.79 362.5,-628.58 365.71,-625.38 368.92,-625.38 368.92,-625.38 432.08,-625.38 432.08,-625.38 435.29,-625.38 438.5,-628.58 438.5,-631.79 438.5,-631.79 438.5,-638.21 438.5,-638.21 438.5,-641.42 435.29,-644.62 432.08,-644.62"/>
<text text-anchor="start" x="370.5" y="-632.08" font-family="Helvetica,sans-Serif" font-size="9.00">checkbox.tsx</text>
</a>
</g>
</g>
<!-- src/components/ui/dialog.tsx -->
<g id="node24" class="node">
<title>src/components/ui/dialog.tsx</title>
<g id="a_node24"><a xlink:href="src/components/ui/dialog.tsx" xlink:title="dialog.tsx">
<path fill="#ccffcc" stroke="black" d="M423.83,-675.62C423.83,-675.62 377.17,-675.62 377.17,-675.62 373.96,-675.62 370.75,-672.42 370.75,-669.21 370.75,-669.21 370.75,-662.79 370.75,-662.79 370.75,-659.58 373.96,-656.38 377.17,-656.38 377.17,-656.38 423.83,-656.38 423.83,-656.38 427.04,-656.38 430.25,-659.58 430.25,-662.79 430.25,-662.79 430.25,-669.21 430.25,-669.21 430.25,-672.42 427.04,-675.62 423.83,-675.62"/>
<text text-anchor="start" x="378.75" y="-663.08" font-family="Helvetica,sans-Serif" font-size="9.00">dialog.tsx</text>
</a>
</g>
</g>
<!-- src/components/ui/drawer.tsx -->
<g id="node25" class="node">
<title>src/components/ui/drawer.tsx</title>
<g id="a_node25"><a xlink:href="src/components/ui/drawer.tsx" xlink:title="drawer.tsx">
<path fill="#ccffcc" stroke="black" d="M425.33,-706.62C425.33,-706.62 375.67,-706.62 375.67,-706.62 372.46,-706.62 369.25,-703.42 369.25,-700.21 369.25,-700.21 369.25,-693.79 369.25,-693.79 369.25,-690.58 372.46,-687.38 375.67,-687.38 375.67,-687.38 425.33,-687.38 425.33,-687.38 428.54,-687.38 431.75,-690.58 431.75,-693.79 431.75,-693.79 431.75,-700.21 431.75,-700.21 431.75,-703.42 428.54,-706.62 425.33,-706.62"/>
<text text-anchor="start" x="377.25" y="-694.08" font-family="Helvetica,sans-Serif" font-size="9.00">drawer.tsx</text>
</a>
</g>
</g>
<!-- src/components/ui/dropdown&#45;menu.tsx -->
<g id="node26" class="node">
<title>src/components/ui/dropdown&#45;menu.tsx</title>
<g id="a_node26"><a xlink:href="src/components/ui/dropdown-menu.tsx" xlink:title="dropdown&#45;menu.tsx">
<path fill="#ccffcc" stroke="black" d="M447.83,-737.62C447.83,-737.62 353.17,-737.62 353.17,-737.62 349.96,-737.62 346.75,-734.42 346.75,-731.21 346.75,-731.21 346.75,-724.79 346.75,-724.79 346.75,-721.58 349.96,-718.38 353.17,-718.38 353.17,-718.38 447.83,-718.38 447.83,-718.38 451.04,-718.38 454.25,-721.58 454.25,-724.79 454.25,-724.79 454.25,-731.21 454.25,-731.21 454.25,-734.42 451.04,-737.62 447.83,-737.62"/>
<text text-anchor="start" x="354.75" y="-725.08" font-family="Helvetica,sans-Serif" font-size="9.00">dropdown&#45;menu.tsx</text>
</a>
</g>
</g>
<!-- src/components/ui/form.tsx -->
<g id="node27" class="node">
<title>src/components/ui/form.tsx</title>
<g id="a_node27"><a xlink:href="src/components/ui/form.tsx" xlink:title="form.tsx">
<path fill="#ccffcc" stroke="black" d="M421.08,-768.62C421.08,-768.62 379.92,-768.62 379.92,-768.62 376.71,-768.62 373.5,-765.42 373.5,-762.21 373.5,-762.21 373.5,-755.79 373.5,-755.79 373.5,-752.58 376.71,-749.38 379.92,-749.38 379.92,-749.38 421.08,-749.38 421.08,-749.38 424.29,-749.38 427.5,-752.58 427.5,-755.79 427.5,-755.79 427.5,-762.21 427.5,-762.21 427.5,-765.42 424.29,-768.62 421.08,-768.62"/>
<text text-anchor="start" x="381.75" y="-756.08" font-family="Helvetica,sans-Serif" font-size="9.00">form.tsx</text>
</a>
</g>
</g>
<!-- src/components/ui/input.tsx -->
<g id="node28" class="node">
<title>src/components/ui/input.tsx</title>
<g id="a_node28"><a xlink:href="src/components/ui/input.tsx" xlink:title="input.tsx">
<path fill="#ccffcc" stroke="black" d="M422.33,-799.62C422.33,-799.62 378.67,-799.62 378.67,-799.62 375.46,-799.62 372.25,-796.42 372.25,-793.21 372.25,-793.21 372.25,-786.79 372.25,-786.79 372.25,-783.58 375.46,-780.38 378.67,-780.38 378.67,-780.38 422.33,-780.38 422.33,-780.38 425.54,-780.38 428.75,-783.58 428.75,-786.79 428.75,-786.79 428.75,-793.21 428.75,-793.21 428.75,-796.42 425.54,-799.62 422.33,-799.62"/>
<text text-anchor="start" x="380.25" y="-787.08" font-family="Helvetica,sans-Serif" font-size="9.00">input.tsx</text>
</a>
</g>
</g>
<!-- src/components/ui/label.tsx -->
<g id="node29" class="node">
<title>src/components/ui/label.tsx</title>
<g id="a_node29"><a xlink:href="src/components/ui/label.tsx" xlink:title="label.tsx">
<path fill="#ccffcc" stroke="black" d="M421.08,-830.62C421.08,-830.62 379.92,-830.62 379.92,-830.62 376.71,-830.62 373.5,-827.42 373.5,-824.21 373.5,-824.21 373.5,-817.79 373.5,-817.79 373.5,-814.58 376.71,-811.38 379.92,-811.38 379.92,-811.38 421.08,-811.38 421.08,-811.38 424.29,-811.38 427.5,-814.58 427.5,-817.79 427.5,-817.79 427.5,-824.21 427.5,-824.21 427.5,-827.42 424.29,-830.62 421.08,-830.62"/>
<text text-anchor="start" x="381.75" y="-818.08" font-family="Helvetica,sans-Serif" font-size="9.00">label.tsx</text>
</a>
</g>
</g>
<!-- src/components/ui/resizable.tsx -->
<g id="node30" class="node">
<title>src/components/ui/resizable.tsx</title>
<g id="a_node30"><a xlink:href="src/components/ui/resizable.tsx" xlink:title="resizable.tsx">
<path fill="#ccffcc" stroke="black" d="M429.83,-861.62C429.83,-861.62 371.17,-861.62 371.17,-861.62 367.96,-861.62 364.75,-858.42 364.75,-855.21 364.75,-855.21 364.75,-848.79 364.75,-848.79 364.75,-845.58 367.96,-842.38 371.17,-842.38 371.17,-842.38 429.83,-842.38 429.83,-842.38 433.04,-842.38 436.25,-845.58 436.25,-848.79 436.25,-848.79 436.25,-855.21 436.25,-855.21 436.25,-858.42 433.04,-861.62 429.83,-861.62"/>
<text text-anchor="start" x="372.75" y="-849.08" font-family="Helvetica,sans-Serif" font-size="9.00">resizable.tsx</text>
</a>
</g>
</g>
<!-- src/components/ui/select.tsx -->
<g id="node31" class="node">
<title>src/components/ui/select.tsx</title>
<g id="a_node31"><a xlink:href="src/components/ui/select.tsx" xlink:title="select.tsx">
<path fill="#ccffcc" stroke="black" d="M423.46,-892.62C423.46,-892.62 377.54,-892.62 377.54,-892.62 374.33,-892.62 371.12,-889.42 371.12,-886.21 371.12,-886.21 371.12,-879.79 371.12,-879.79 371.12,-876.58 374.33,-873.38 377.54,-873.38 377.54,-873.38 423.46,-873.38 423.46,-873.38 426.67,-873.38 429.88,-876.58 429.88,-879.79 429.88,-879.79 429.88,-886.21 429.88,-886.21 429.88,-889.42 426.67,-892.62 423.46,-892.62"/>
<text text-anchor="start" x="379.12" y="-880.08" font-family="Helvetica,sans-Serif" font-size="9.00">select.tsx</text>
</a>
</g>
</g>
<!-- src/components/ui/separator.tsx -->
<g id="node32" class="node">
<title>src/components/ui/separator.tsx</title>
<g id="a_node32"><a xlink:href="src/components/ui/separator.tsx" xlink:title="separator.tsx">
<path fill="#ccffcc" stroke="black" d="M430.96,-923.62C430.96,-923.62 370.04,-923.62 370.04,-923.62 366.83,-923.62 363.62,-920.42 363.62,-917.21 363.62,-917.21 363.62,-910.79 363.62,-910.79 363.62,-907.58 366.83,-904.38 370.04,-904.38 370.04,-904.38 430.96,-904.38 430.96,-904.38 434.17,-904.38 437.38,-907.58 437.38,-910.79 437.38,-910.79 437.38,-917.21 437.38,-917.21 437.38,-920.42 434.17,-923.62 430.96,-923.62"/>
<text text-anchor="start" x="371.62" y="-911.08" font-family="Helvetica,sans-Serif" font-size="9.00">separator.tsx</text>
</a>
</g>
</g>
<!-- src/components/ui/sheet.tsx -->
<g id="node33" class="node">
<title>src/components/ui/sheet.tsx</title>
<g id="a_node33"><a xlink:href="src/components/ui/sheet.tsx" xlink:title="sheet.tsx">
<path fill="#ccffcc" stroke="black" d="M422.71,-954.62C422.71,-954.62 378.29,-954.62 378.29,-954.62 375.08,-954.62 371.88,-951.42 371.88,-948.21 371.88,-948.21 371.88,-941.79 371.88,-941.79 371.88,-938.58 375.08,-935.38 378.29,-935.38 378.29,-935.38 422.71,-935.38 422.71,-935.38 425.92,-935.38 429.12,-938.58 429.12,-941.79 429.12,-941.79 429.12,-948.21 429.12,-948.21 429.12,-951.42 425.92,-954.62 422.71,-954.62"/>
<text text-anchor="start" x="379.88" y="-942.08" font-family="Helvetica,sans-Serif" font-size="9.00">sheet.tsx</text>
</a>
</g>
</g>
<!-- src/components/ui/sidebar.tsx -->
<g id="node34" class="node">
<title>src/components/ui/sidebar.tsx</title>
<g id="a_node34"><a xlink:href="src/components/ui/sidebar.tsx" xlink:title="sidebar.tsx">
<path fill="#ccffcc" stroke="black" d="M426.08,-985.62C426.08,-985.62 374.92,-985.62 374.92,-985.62 371.71,-985.62 368.5,-982.42 368.5,-979.21 368.5,-979.21 368.5,-972.79 368.5,-972.79 368.5,-969.58 371.71,-966.38 374.92,-966.38 374.92,-966.38 426.08,-966.38 426.08,-966.38 429.29,-966.38 432.5,-969.58 432.5,-972.79 432.5,-972.79 432.5,-979.21 432.5,-979.21 432.5,-982.42 429.29,-985.62 426.08,-985.62"/>
<text text-anchor="start" x="376.5" y="-973.08" font-family="Helvetica,sans-Serif" font-size="9.00">sidebar.tsx</text>
</a>
</g>
</g>
<!-- src/components/ui/skeleton.tsx -->
<g id="node35" class="node">
<title>src/components/ui/skeleton.tsx</title>
<g id="a_node35"><a xlink:href="src/components/ui/skeleton.tsx" xlink:title="skeleton.tsx">
<path fill="#ccffcc" stroke="black" d="M429.08,-1016.62C429.08,-1016.62 371.92,-1016.62 371.92,-1016.62 368.71,-1016.62 365.5,-1013.42 365.5,-1010.21 365.5,-1010.21 365.5,-1003.79 365.5,-1003.79 365.5,-1000.58 368.71,-997.38 371.92,-997.38 371.92,-997.38 429.08,-997.38 429.08,-997.38 432.29,-997.38 435.5,-1000.58 435.5,-1003.79 435.5,-1003.79 435.5,-1010.21 435.5,-1010.21 435.5,-1013.42 432.29,-1016.62 429.08,-1016.62"/>
<text text-anchor="start" x="373.5" y="-1004.08" font-family="Helvetica,sans-Serif" font-size="9.00">skeleton.tsx</text>
</a>
</g>
</g>
<!-- src/components/ui/textarea.tsx -->
<g id="node36" class="node">
<title>src/components/ui/textarea.tsx</title>
<g id="a_node36"><a xlink:href="src/components/ui/textarea.tsx" xlink:title="textarea.tsx">
<path fill="#ccffcc" stroke="black" d="M429.08,-1047.62C429.08,-1047.62 371.92,-1047.62 371.92,-1047.62 368.71,-1047.62 365.5,-1044.42 365.5,-1041.21 365.5,-1041.21 365.5,-1034.79 365.5,-1034.79 365.5,-1031.58 368.71,-1028.38 371.92,-1028.38 371.92,-1028.38 429.08,-1028.38 429.08,-1028.38 432.29,-1028.38 435.5,-1031.58 435.5,-1034.79 435.5,-1034.79 435.5,-1041.21 435.5,-1041.21 435.5,-1044.42 432.29,-1047.62 429.08,-1047.62"/>
<text text-anchor="start" x="373.5" y="-1035.08" font-family="Helvetica,sans-Serif" font-size="9.00">textarea.tsx</text>
</a>
</g>
</g>
<!-- src/components/ui/toast.tsx -->
<g id="node37" class="node">
<title>src/components/ui/toast.tsx</title>
<g id="a_node37"><a xlink:href="src/components/ui/toast.tsx" xlink:title="toast.tsx">
<path fill="#ccffcc" stroke="black" d="M421.58,-1078.62C421.58,-1078.62 379.42,-1078.62 379.42,-1078.62 376.21,-1078.62 373,-1075.42 373,-1072.21 373,-1072.21 373,-1065.79 373,-1065.79 373,-1062.58 376.21,-1059.38 379.42,-1059.38 379.42,-1059.38 421.58,-1059.38 421.58,-1059.38 424.79,-1059.38 428,-1062.58 428,-1065.79 428,-1065.79 428,-1072.21 428,-1072.21 428,-1075.42 424.79,-1078.62 421.58,-1078.62"/>
<text text-anchor="start" x="381" y="-1066.08" font-family="Helvetica,sans-Serif" font-size="9.00">toast.tsx</text>
</a>
</g>
</g>
<!-- src/components/ui/tooltip.tsx -->
<g id="node38" class="node">
<title>src/components/ui/tooltip.tsx</title>
<g id="a_node38"><a xlink:href="src/components/ui/tooltip.tsx" xlink:title="tooltip.tsx">
<path fill="#ccffcc" stroke="black" d="M424.58,-1109.62C424.58,-1109.62 376.42,-1109.62 376.42,-1109.62 373.21,-1109.62 370,-1106.42 370,-1103.21 370,-1103.21 370,-1096.79 370,-1096.79 370,-1093.58 373.21,-1090.38 376.42,-1090.38 376.42,-1090.38 424.58,-1090.38 424.58,-1090.38 427.79,-1090.38 431,-1093.58 431,-1096.79 431,-1096.79 431,-1103.21 431,-1103.21 431,-1106.42 427.79,-1109.62 424.58,-1109.62"/>
<text text-anchor="start" x="378" y="-1097.08" font-family="Helvetica,sans-Serif" font-size="9.00">tooltip.tsx</text>
</a>
</g>
</g>
<!-- src/hooks/use&#45;mobile.tsx -->
<g id="node39" class="node">
<title>src/hooks/use&#45;mobile.tsx</title>
<g id="a_node39"><a xlink:href="src/hooks/use-mobile.tsx" xlink:title="use&#45;mobile.tsx">
<path fill="#ccffcc" stroke="black" d="M109.58,-43.62C109.58,-43.62 41.17,-43.62 41.17,-43.62 37.96,-43.62 34.75,-40.42 34.75,-37.21 34.75,-37.21 34.75,-30.79 34.75,-30.79 34.75,-27.58 37.96,-24.38 41.17,-24.38 41.17,-24.38 109.58,-24.38 109.58,-24.38 112.79,-24.38 116,-27.58 116,-30.79 116,-30.79 116,-37.21 116,-37.21 116,-40.42 112.79,-43.62 109.58,-43.62"/>
<text text-anchor="start" x="42.75" y="-31.07" font-family="Helvetica,sans-Serif" font-size="9.00">use&#45;mobile.tsx</text>
</a>
</g>
</g>
<!-- src/hooks/use&#45;theme.ts -->
<g id="node40" class="node">
<title>src/hooks/use&#45;theme.ts</title>
<g id="a_node40"><a xlink:href="src/hooks/use-theme.ts" xlink:title="use&#45;theme.ts">
<path fill="#ccffcc" stroke="black" d="M106.58,-74.62C106.58,-74.62 44.17,-74.62 44.17,-74.62 40.96,-74.62 37.75,-71.42 37.75,-68.21 37.75,-68.21 37.75,-61.79 37.75,-61.79 37.75,-58.58 40.96,-55.38 44.17,-55.38 44.17,-55.38 106.58,-55.38 106.58,-55.38 109.79,-55.38 113,-58.58 113,-61.79 113,-61.79 113,-68.21 113,-68.21 113,-71.42 109.79,-74.62 106.58,-74.62"/>
<text text-anchor="start" x="45.75" y="-62.08" font-family="Helvetica,sans-Serif" font-size="9.00">use&#45;theme.ts</text>
</a>
</g>
</g>
<!-- src/hooks/use&#45;toast.ts -->
<g id="node41" class="node">
<title>src/hooks/use&#45;toast.ts</title>
<g id="a_node41"><a xlink:href="src/hooks/use-toast.ts" xlink:title="use&#45;toast.ts">
<path fill="#ccffcc" stroke="black" d="M103.21,-105.62C103.21,-105.62 47.54,-105.62 47.54,-105.62 44.33,-105.62 41.12,-102.42 41.12,-99.21 41.12,-99.21 41.12,-92.79 41.12,-92.79 41.12,-89.58 44.33,-86.38 47.54,-86.38 47.54,-86.38 103.21,-86.38 103.21,-86.38 106.42,-86.38 109.62,-89.58 109.62,-92.79 109.62,-92.79 109.62,-99.21 109.62,-99.21 109.62,-102.42 106.42,-105.62 103.21,-105.62"/>
<text text-anchor="start" x="49.12" y="-93.08" font-family="Helvetica,sans-Serif" font-size="9.00">use&#45;toast.ts</text>
</a>
</g>
</g>
<!-- src/index.css -->
<g id="node42" class="node">
<title>src/index.css</title>
<g id="a_node42"><a xlink:href="src/index.css" xlink:title="index.css">
<path fill="#ffffcc" stroke="black" d="M183.58,-1283.62C183.58,-1283.62 138.42,-1283.62 138.42,-1283.62 135.21,-1283.62 132,-1280.42 132,-1277.21 132,-1277.21 132,-1270.79 132,-1270.79 132,-1267.58 135.21,-1264.38 138.42,-1264.38 138.42,-1264.38 183.58,-1264.38 183.58,-1264.38 186.79,-1264.38 190,-1267.58 190,-1270.79 190,-1270.79 190,-1277.21 190,-1277.21 190,-1280.42 186.79,-1283.62 183.58,-1283.62"/>
<text text-anchor="start" x="140" y="-1271.08" font-family="Helvetica,sans-Serif" font-size="9.00">index.css</text>
</a>
</g>
</g>
<!-- src/layout.tsx -->
<g id="node43" class="node">
<title>src/layout.tsx</title>
<g id="a_node43"><a xlink:href="src/layout.tsx" xlink:title="layout.tsx">
<path fill="#ccffcc" stroke="black" d="M99.08,-896.62C99.08,-896.62 51.67,-896.62 51.67,-896.62 48.46,-896.62 45.25,-893.42 45.25,-890.21 45.25,-890.21 45.25,-883.79 45.25,-883.79 45.25,-880.58 48.46,-877.38 51.67,-877.38 51.67,-877.38 99.08,-877.38 99.08,-877.38 102.29,-877.38 105.5,-880.58 105.5,-883.79 105.5,-883.79 105.5,-890.21 105.5,-890.21 105.5,-893.42 102.29,-896.62 99.08,-896.62"/>
<text text-anchor="start" x="53.25" y="-884.08" font-family="Helvetica,sans-Serif" font-size="9.00">layout.tsx</text>
</a>
</g>
</g>
<!-- src/lib/api/URLs.ts -->
<g id="node44" class="node">
<title>src/lib/api/URLs.ts</title>
<g id="a_node44"><a xlink:href="src/lib/api/URLs.ts" xlink:title="URLs.ts">
<path fill="#ddfeff" stroke="black" d="M281.83,-227.62C281.83,-227.62 240.67,-227.62 240.67,-227.62 237.46,-227.62 234.25,-224.42 234.25,-221.21 234.25,-221.21 234.25,-214.79 234.25,-214.79 234.25,-211.58 237.46,-208.38 240.67,-208.38 240.67,-208.38 281.83,-208.38 281.83,-208.38 285.04,-208.38 288.25,-211.58 288.25,-214.79 288.25,-214.79 288.25,-221.21 288.25,-221.21 288.25,-224.42 285.04,-227.62 281.83,-227.62"/>
<text text-anchor="start" x="244.38" y="-215.07" font-family="Helvetica,sans-Serif" font-size="9.00">URLs.ts</text>
</a>
</g>
</g>
<!-- src/lib/api/axios.ts -->
<g id="node45" class="node">
<title>src/lib/api/axios.ts</title>
<g id="a_node45"><a xlink:href="src/lib/api/axios.ts" xlink:title="axios.ts">
<path fill="#ddfeff" stroke="black" d="M181.58,-227.62C181.58,-227.62 140.42,-227.62 140.42,-227.62 137.21,-227.62 134,-224.42 134,-221.21 134,-221.21 134,-214.79 134,-214.79 134,-211.58 137.21,-208.38 140.42,-208.38 140.42,-208.38 181.58,-208.38 181.58,-208.38 184.79,-208.38 188,-211.58 188,-214.79 188,-214.79 188,-221.21 188,-221.21 188,-224.42 184.79,-227.62 181.58,-227.62"/>
<text text-anchor="start" x="144.12" y="-215.07" font-family="Helvetica,sans-Serif" font-size="9.00">axios.ts</text>
</a>
</g>
</g>
<!-- src/lib/api/axios.ts&#45;&gt;src/lib/api/URLs.ts -->
<g id="edge10" class="edge">
<title>src/lib/api/axios.ts&#45;&gt;src/lib/api/URLs.ts</title>
<path fill="none" stroke="#000000" stroke-width="2" stroke-opacity="0.200000" d="M188.33,-218C199.56,-218 212.84,-218 224.91,-218"/>
<polygon fill="#000000" fill-opacity="0.200000" stroke="#000000" stroke-width="2" stroke-opacity="0.200000" points="224.82,-220.1 230.82,-218 224.82,-215.9 224.82,-220.1"/>
</g>
<!-- src/lib/api/calls/AuthCalls.ts -->
<g id="node46" class="node">
<title>src/lib/api/calls/AuthCalls.ts</title>
<g id="a_node46"><a xlink:href="src/lib/api/calls/AuthCalls.ts" xlink:title="AuthCalls.ts">
<path fill="#ddfeff" stroke="black" d="M103.58,-184.62C103.58,-184.62 47.17,-184.62 47.17,-184.62 43.96,-184.62 40.75,-181.42 40.75,-178.21 40.75,-178.21 40.75,-171.79 40.75,-171.79 40.75,-168.58 43.96,-165.38 47.17,-165.38 47.17,-165.38 103.58,-165.38 103.58,-165.38 106.79,-165.38 110,-168.58 110,-171.79 110,-171.79 110,-178.21 110,-178.21 110,-181.42 106.79,-184.62 103.58,-184.62"/>
<text text-anchor="start" x="48.75" y="-172.07" font-family="Helvetica,sans-Serif" font-size="9.00">AuthCalls.ts</text>
</a>
</g>
</g>
<!-- src/lib/api/calls/AuthCalls.ts&#45;&gt;src/lib/api/URLs.ts -->
<g id="edge12" class="edge">
<title>src/lib/api/calls/AuthCalls.ts&#45;&gt;src/lib/api/URLs.ts</title>
<path fill="none" stroke="#000000" stroke-width="2" stroke-opacity="0.200000" d="M110.38,-180.67C133.05,-184.68 163.46,-190.48 190,-197 201.72,-199.88 214.4,-203.51 225.72,-206.93"/>
<polygon fill="#000000" fill-opacity="0.200000" stroke="#000000" stroke-width="2" stroke-opacity="0.200000" points="224.82,-208.86 231.17,-208.61 226.05,-204.84 224.82,-208.86"/>
</g>
<!-- src/lib/api/calls/AuthCalls.ts&#45;&gt;src/lib/api/axios.ts -->
<g id="edge11" class="edge">
<title>src/lib/api/calls/AuthCalls.ts&#45;&gt;src/lib/api/axios.ts</title>
<path fill="none" stroke="#000000" stroke-width="2" stroke-opacity="0.200000" d="M110.29,-184.03C115,-185.76 119.7,-187.75 124,-190 130.51,-193.41 137.03,-198.03 142.7,-202.53"/>
<polygon fill="#000000" fill-opacity="0.200000" stroke="#000000" stroke-width="2" stroke-opacity="0.200000" points="141.07,-203.92 147.03,-206.14 143.76,-200.69 141.07,-203.92"/>
</g>
<!-- src/lib/api/calls/ListsCalls.ts -->
<g id="node47" class="node">
<title>src/lib/api/calls/ListsCalls.ts</title>
<g id="a_node47"><a xlink:href="src/lib/api/calls/ListsCalls.ts" xlink:title="ListsCalls.ts">
<path fill="#ddfeff" stroke="black" d="M102.83,-215.62C102.83,-215.62 47.92,-215.62 47.92,-215.62 44.71,-215.62 41.5,-212.42 41.5,-209.21 41.5,-209.21 41.5,-202.79 41.5,-202.79 41.5,-199.58 44.71,-196.38 47.92,-196.38 47.92,-196.38 102.83,-196.38 102.83,-196.38 106.04,-196.38 109.25,-199.58 109.25,-202.79 109.25,-202.79 109.25,-209.21 109.25,-209.21 109.25,-212.42 106.04,-215.62 102.83,-215.62"/>
<text text-anchor="start" x="49.5" y="-203.07" font-family="Helvetica,sans-Serif" font-size="9.00">ListsCalls.ts</text>
</a>
</g>
</g>
<!-- src/lib/api/calls/ListsCalls.ts&#45;&gt;src/lib/api/URLs.ts -->
<g id="edge14" class="edge">
<title>src/lib/api/calls/ListsCalls.ts&#45;&gt;src/lib/api/URLs.ts</title>
<path fill="none" stroke="#000000" stroke-width="2" stroke-opacity="0.200000" d="M109.59,-203.22C116.96,-202.71 124.74,-202.26 132,-202 157.76,-201.07 164.38,-199.12 190,-202 201.57,-203.3 214.02,-205.77 225.18,-208.39"/>
<polygon fill="#000000" fill-opacity="0.200000" stroke="#000000" stroke-width="2" stroke-opacity="0.200000" points="224.54,-210.4 230.86,-209.78 225.53,-206.32 224.54,-210.4"/>
</g>
<!-- src/lib/api/calls/ListsCalls.ts&#45;&gt;src/lib/api/axios.ts -->
<g id="edge13" class="edge">
<title>src/lib/api/calls/ListsCalls.ts&#45;&gt;src/lib/api/axios.ts</title>
<path fill="none" stroke="#000000" stroke-width="2" stroke-opacity="0.200000" d="M109.43,-210.74C114.45,-211.46 119.65,-212.21 124.71,-212.94"/>
<polygon fill="#000000" fill-opacity="0.200000" stroke="#000000" stroke-width="2" stroke-opacity="0.200000" points="124.39,-215.01 130.63,-213.79 124.99,-210.85 124.39,-215.01"/>
</g>
<!-- src/lib/api/calls/TasksCalls.ts -->
<g id="node48" class="node">
<title>src/lib/api/calls/TasksCalls.ts</title>
<g id="a_node48"><a xlink:href="src/lib/api/calls/TasksCalls.ts" xlink:title="TasksCalls.ts">
<path fill="#ddfeff" stroke="black" d="M104.33,-246.62C104.33,-246.62 46.42,-246.62 46.42,-246.62 43.21,-246.62 40,-243.42 40,-240.21 40,-240.21 40,-233.79 40,-233.79 40,-230.58 43.21,-227.38 46.42,-227.38 46.42,-227.38 104.33,-227.38 104.33,-227.38 107.54,-227.38 110.75,-230.58 110.75,-233.79 110.75,-233.79 110.75,-240.21 110.75,-240.21 110.75,-243.42 107.54,-246.62 104.33,-246.62"/>
<text text-anchor="start" x="48" y="-234.07" font-family="Helvetica,sans-Serif" font-size="9.00">TasksCalls.ts</text>
</a>
</g>
</g>
<!-- src/lib/api/calls/TasksCalls.ts&#45;&gt;src/lib/api/URLs.ts -->
<g id="edge16" class="edge">
<title>src/lib/api/calls/TasksCalls.ts&#45;&gt;src/lib/api/URLs.ts</title>
<path fill="none" stroke="#000000" stroke-width="2" stroke-opacity="0.200000" d="M111.07,-237.85C133.64,-237.97 163.67,-237.31 190,-234 201.56,-232.55 214,-230.03 225.15,-227.42"/>
<polygon fill="#000000" fill-opacity="0.200000" stroke="#000000" stroke-width="2" stroke-opacity="0.200000" points="225.51,-229.5 230.84,-226.04 224.52,-225.42 225.51,-229.5"/>
</g>
<!-- src/lib/api/calls/TasksCalls.ts&#45;&gt;src/lib/api/axios.ts -->
<g id="edge15" class="edge">
<title>src/lib/api/calls/TasksCalls.ts&#45;&gt;src/lib/api/axios.ts</title>
<path fill="none" stroke="#000000" stroke-width="2" stroke-opacity="0.200000" d="M110.87,-229.16C115.48,-228.12 120.21,-227.04 124.82,-225.99"/>
<polygon fill="#000000" fill-opacity="0.200000" stroke="#000000" stroke-width="2" stroke-opacity="0.200000" points="125.17,-228.07 130.55,-224.69 124.24,-223.97 125.17,-228.07"/>
</g>
<!-- src/lib/api/calls/UserCalls.ts -->
<g id="node49" class="node">
<title>src/lib/api/calls/UserCalls.ts</title>
<g id="a_node49"><a xlink:href="src/lib/api/calls/UserCalls.ts" xlink:title="UserCalls.ts">
<path fill="#ddfeff" stroke="black" d="M102.83,-277.62C102.83,-277.62 47.92,-277.62 47.92,-277.62 44.71,-277.62 41.5,-274.42 41.5,-271.21 41.5,-271.21 41.5,-264.79 41.5,-264.79 41.5,-261.58 44.71,-258.38 47.92,-258.38 47.92,-258.38 102.83,-258.38 102.83,-258.38 106.04,-258.38 109.25,-261.58 109.25,-264.79 109.25,-264.79 109.25,-271.21 109.25,-271.21 109.25,-274.42 106.04,-277.62 102.83,-277.62"/>
<text text-anchor="start" x="49.5" y="-265.07" font-family="Helvetica,sans-Serif" font-size="9.00">UserCalls.ts</text>
</a>
</g>
</g>
<!-- src/lib/api/calls/UserCalls.ts&#45;&gt;src/lib/api/URLs.ts -->
<g id="edge18" class="edge">
<title>src/lib/api/calls/UserCalls.ts&#45;&gt;src/lib/api/URLs.ts</title>
<path fill="none" stroke="#000000" stroke-width="2" stroke-opacity="0.200000" d="M109.33,-260.45C132.09,-255.09 163,-247.55 190,-240 201.67,-236.74 214.34,-232.87 225.66,-229.3"/>
<polygon fill="#000000" fill-opacity="0.200000" stroke="#000000" stroke-width="2" stroke-opacity="0.200000" points="226.05,-231.38 231.13,-227.56 224.77,-227.38 226.05,-231.38"/>
</g>
<!-- src/lib/api/calls/UserCalls.ts&#45;&gt;src/lib/api/axios.ts -->
<g id="edge17" class="edge">
<title>src/lib/api/calls/UserCalls.ts&#45;&gt;src/lib/api/axios.ts</title>
<path fill="none" stroke="#000000" stroke-width="2" stroke-opacity="0.200000" d="M109.52,-259.77C114.55,-257.91 119.53,-255.67 124,-253 132.31,-248.04 140.18,-240.8 146.43,-234.19"/>
<polygon fill="#000000" fill-opacity="0.200000" stroke="#000000" stroke-width="2" stroke-opacity="0.200000" points="147.62,-236.01 150.07,-230.15 144.5,-233.2 147.62,-236.01"/>
</g>
<!-- src/lib/api/interfaces.ts -->
<g id="node50" class="node">
<title>src/lib/api/interfaces.ts</title>
<g id="a_node50"><a xlink:href="src/lib/api/interfaces.ts" xlink:title="interfaces.ts">
<path fill="#ccffcc" stroke="black" d="M104.71,-332.62C104.71,-332.62 46.04,-332.62 46.04,-332.62 42.83,-332.62 39.62,-329.42 39.62,-326.21 39.62,-326.21 39.62,-319.79 39.62,-319.79 39.62,-316.58 42.83,-313.38 46.04,-313.38 46.04,-313.38 104.71,-313.38 104.71,-313.38 107.92,-313.38 111.12,-316.58 111.12,-319.79 111.12,-319.79 111.12,-326.21 111.12,-326.21 111.12,-329.42 107.92,-332.62 104.71,-332.62"/>
<text text-anchor="start" x="47.62" y="-320.07" font-family="Helvetica,sans-Serif" font-size="9.00">interfaces.ts</text>
</a>
</g>
</g>
<!-- src/lib/utils.ts -->
<g id="node51" class="node">
<title>src/lib/utils.ts</title>
<g id="a_node51"><a xlink:href="src/lib/utils.ts" xlink:title="utils.ts">
<path fill="#ccffcc" stroke="black" d="M95.96,-387.62C95.96,-387.62 54.79,-387.62 54.79,-387.62 51.58,-387.62 48.38,-384.42 48.38,-381.21 48.38,-381.21 48.38,-374.79 48.38,-374.79 48.38,-371.58 51.58,-368.38 54.79,-368.38 54.79,-368.38 95.96,-368.38 95.96,-368.38 99.17,-368.38 102.38,-371.58 102.38,-374.79 102.38,-374.79 102.38,-381.21 102.38,-381.21 102.38,-384.42 99.17,-387.62 95.96,-387.62"/>
<text text-anchor="start" x="60.38" y="-375.07" font-family="Helvetica,sans-Serif" font-size="9.00">utils.ts</text>
</a>
</g>
</g>
<!-- src/main.tsx -->
<g id="node52" class="node">
<title>src/main.tsx</title>
<g id="a_node52"><a xlink:href="src/main.tsx" xlink:title="main.tsx">
<path fill="#bbfeff" stroke="black" d="M96.46,-1298.62C96.46,-1298.62 54.29,-1298.62 54.29,-1298.62 51.08,-1298.62 47.88,-1295.42 47.88,-1292.21 47.88,-1292.21 47.88,-1285.79 47.88,-1285.79 47.88,-1282.58 51.08,-1279.38 54.29,-1279.38 54.29,-1279.38 96.46,-1279.38 96.46,-1279.38 99.67,-1279.38 102.88,-1282.58 102.88,-1285.79 102.88,-1285.79 102.88,-1292.21 102.88,-1292.21 102.88,-1295.42 99.67,-1298.62 96.46,-1298.62"/>
<text text-anchor="start" x="55.88" y="-1286.08" font-family="Helvetica,sans-Serif" font-size="9.00">main.tsx</text>
</a>
</g>
</g>
<!-- src/main.tsx&#45;&gt;src/App.tsx -->
<g id="edge19" class="edge">
<title>src/main.tsx&#45;&gt;src/App.tsx</title>
<path fill="none" stroke="#000000" stroke-width="2" stroke-opacity="0.200000" d="M103.29,-1294.15C110.3,-1295.49 117.94,-1296.95 125.28,-1298.36"/>
<polygon fill="#000000" fill-opacity="0.200000" stroke="#000000" stroke-width="2" stroke-opacity="0.200000" points="124.44,-1300.33 130.73,-1299.4 125.23,-1296.21 124.44,-1300.33"/>
</g>
<!-- src/main.tsx&#45;&gt;src/index.css -->
<g id="edge20" class="edge">
<title>src/main.tsx&#45;&gt;src/index.css</title>
<path fill="none" stroke="#000000" stroke-width="2" stroke-opacity="0.200000" d="M103.29,-1284.17C109.53,-1283.05 116.28,-1281.84 122.87,-1280.66"/>
<polygon fill="#000000" fill-opacity="0.200000" stroke="#000000" stroke-width="2" stroke-opacity="0.200000" points="123.18,-1282.74 128.71,-1279.61 122.43,-1278.6 123.18,-1282.74"/>
</g>
<!-- src/pages/Tasks/componenets/AllPendingTasksList.tsx -->
<g id="node56" class="node">
<title>src/pages/Tasks/componenets/AllPendingTasksList.tsx</title>
<g id="a_node56"><a xlink:href="src/pages/Tasks/componenets/AllPendingTasksList.tsx" xlink:title="AllPendingTasksList.tsx">
<path fill="#bbfeff" stroke="black" d="M613.83,-1517.62C613.83,-1517.62 507.92,-1517.62 507.92,-1517.62 504.71,-1517.62 501.5,-1514.42 501.5,-1511.21 501.5,-1511.21 501.5,-1504.79 501.5,-1504.79 501.5,-1501.58 504.71,-1498.38 507.92,-1498.38 507.92,-1498.38 613.83,-1498.38 613.83,-1498.38 617.04,-1498.38 620.25,-1501.58 620.25,-1504.79 620.25,-1504.79 620.25,-1511.21 620.25,-1511.21 620.25,-1514.42 617.04,-1517.62 613.83,-1517.62"/>
<text text-anchor="start" x="509.5" y="-1505.08" font-family="Helvetica,sans-Serif" font-size="9.00">AllPendingTasksList.tsx</text>
</a>
</g>
</g>
<!-- src/pages/Tasks/componenets/TaskItem.tsx -->
<g id="node57" class="node">
<title>src/pages/Tasks/componenets/TaskItem.tsx</title>
<g id="a_node57"><a xlink:href="src/pages/Tasks/componenets/TaskItem.tsx" xlink:title="TaskItem.tsx">
<path fill="#bbfeff" stroke="black" d="M708.08,-1540.62C708.08,-1540.62 648.67,-1540.62 648.67,-1540.62 645.46,-1540.62 642.25,-1537.42 642.25,-1534.21 642.25,-1534.21 642.25,-1527.79 642.25,-1527.79 642.25,-1524.58 645.46,-1521.38 648.67,-1521.38 648.67,-1521.38 708.08,-1521.38 708.08,-1521.38 711.29,-1521.38 714.5,-1524.58 714.5,-1527.79 714.5,-1527.79 714.5,-1534.21 714.5,-1534.21 714.5,-1537.42 711.29,-1540.62 708.08,-1540.62"/>
<text text-anchor="start" x="650.25" y="-1528.08" font-family="Helvetica,sans-Serif" font-size="9.00">TaskItem.tsx</text>
</a>
</g>
</g>
<!-- src/pages/Tasks/componenets/AllPendingTasksList.tsx&#45;&gt;src/pages/Tasks/componenets/TaskItem.tsx -->
<g id="edge24" class="edge">
<title>src/pages/Tasks/componenets/AllPendingTasksList.tsx&#45;&gt;src/pages/Tasks/componenets/TaskItem.tsx</title>
<path fill="none" stroke="#000000" stroke-width="2" stroke-opacity="0.200000" d="M612.53,-1518.09C619.52,-1519.48 626.65,-1520.9 633.51,-1522.26"/>
<polygon fill="#000000" fill-opacity="0.200000" stroke="#000000" stroke-width="2" stroke-opacity="0.200000" points="632.74,-1524.25 639.04,-1523.37 633.56,-1520.13 632.74,-1524.25"/>
</g>
<!-- src/pages/Tasks/componenets/EditTaskDialog.tsx -->
<g id="node59" class="node">
<title>src/pages/Tasks/componenets/EditTaskDialog.tsx</title>
<g id="a_node59"><a xlink:href="src/pages/Tasks/componenets/EditTaskDialog.tsx" xlink:title="EditTaskDialog.tsx">
<path fill="#bbfeff" stroke="black" d="M818.08,-1540.62C818.08,-1540.62 733.92,-1540.62 733.92,-1540.62 730.71,-1540.62 727.5,-1537.42 727.5,-1534.21 727.5,-1534.21 727.5,-1527.79 727.5,-1527.79 727.5,-1524.58 730.71,-1521.38 733.92,-1521.38 733.92,-1521.38 818.08,-1521.38 818.08,-1521.38 821.29,-1521.38 824.5,-1524.58 824.5,-1527.79 824.5,-1527.79 824.5,-1534.21 824.5,-1534.21 824.5,-1537.42 821.29,-1540.62 818.08,-1540.62"/>
<text text-anchor="start" x="735.5" y="-1528.08" font-family="Helvetica,sans-Serif" font-size="9.00">EditTaskDialog.tsx</text>
</a>
</g>
</g>
<!-- src/pages/Tasks/componenets/TaskItem.tsx&#45;&gt;src/pages/Tasks/componenets/EditTaskDialog.tsx -->
<g id="edge26" class="edge">
<title>src/pages/Tasks/componenets/TaskItem.tsx&#45;&gt;src/pages/Tasks/componenets/EditTaskDialog.tsx</title>
<path fill="none" stroke="#000000" stroke-width="2" stroke-opacity="0.200000" d="M714.98,-1531C716.09,-1531 717.2,-1531 718.32,-1531"/>
<polygon fill="#000000" fill-opacity="0.200000" stroke="#000000" stroke-width="2" stroke-opacity="0.200000" points="717.98,-1533.1 723.98,-1531 717.98,-1528.9 717.98,-1533.1"/>
</g>
<!-- src/pages/Tasks/componenets/TaskCompletedViewList.tsx -->
<g id="node60" class="node">
<title>src/pages/Tasks/componenets/TaskCompletedViewList.tsx</title>
<g id="a_node60"><a xlink:href="src/pages/Tasks/componenets/TaskCompletedViewList.tsx" xlink:title="TaskCompletedViewList.tsx">
<path fill="#bbfeff" stroke="black" d="M622.83,-1563.62C622.83,-1563.62 498.92,-1563.62 498.92,-1563.62 495.71,-1563.62 492.5,-1560.42 492.5,-1557.21 492.5,-1557.21 492.5,-1550.79 492.5,-1550.79 492.5,-1547.58 495.71,-1544.38 498.92,-1544.38 498.92,-1544.38 622.83,-1544.38 622.83,-1544.38 626.04,-1544.38 629.25,-1547.58 629.25,-1550.79 629.25,-1550.79 629.25,-1557.21 629.25,-1557.21 629.25,-1560.42 626.04,-1563.62 622.83,-1563.62"/>
<text text-anchor="start" x="500.5" y="-1551.08" font-family="Helvetica,sans-Serif" font-size="9.00">TaskCompletedViewList.tsx</text>
</a>
</g>
</g>
<!-- src/pages/Tasks/componenets/TaskCompletedViewList.tsx&#45;&gt;src/pages/Tasks/componenets/TaskItem.tsx -->
<g id="edge25" class="edge">
<title>src/pages/Tasks/componenets/TaskCompletedViewList.tsx&#45;&gt;src/pages/Tasks/componenets/TaskItem.tsx</title>
<path fill="none" stroke="#000000" stroke-width="2" stroke-opacity="0.200000" d="M612.53,-1543.91C619.52,-1542.52 626.65,-1541.1 633.51,-1539.74"/>
<polygon fill="#000000" fill-opacity="0.200000" stroke="#000000" stroke-width="2" stroke-opacity="0.200000" points="633.56,-1541.87 639.04,-1538.63 632.74,-1537.75 633.56,-1541.87"/>
</g>
<!-- src/pages/Tasks/componenets/TaskList.tsx&#45;&gt;src/pages/Tasks/componenets/AllPendingTasksList.tsx -->
<g id="edge27" class="edge">
<title>src/pages/Tasks/componenets/TaskList.tsx&#45;&gt;src/pages/Tasks/componenets/AllPendingTasksList.tsx</title>
<path fill="none" stroke="#000000" stroke-width="2" stroke-opacity="0.200000" d="M434.45,-1553.96C450.65,-1552.54 469.81,-1548.64 484.5,-1539 489.86,-1535.48 487.32,-1530.77 492.5,-1527 495.16,-1525.06 498.02,-1523.32 500.99,-1521.76"/>
<polygon fill="#000000" fill-opacity="0.200000" stroke="#000000" stroke-width="2" stroke-opacity="0.200000" points="501.78,-1523.71 506.35,-1519.29 500.02,-1519.9 501.78,-1523.71"/>
</g>
<!-- src/pages/Tasks/componenets/TaskList.tsx&#45;&gt;src/pages/Tasks/componenets/TaskItem.tsx -->
<g id="edge29" class="edge">
<title>src/pages/Tasks/componenets/TaskList.tsx&#45;&gt;src/pages/Tasks/componenets/TaskItem.tsx</title>
<path fill="none" stroke="#000000" stroke-width="2" stroke-opacity="0.200000" d="M434.2,-1547.77C455.54,-1543.79 481.41,-1539.18 492.5,-1538 540.4,-1532.91 595.63,-1531.38 633.16,-1530.99"/>
<polygon fill="#000000" fill-opacity="0.200000" stroke="#000000" stroke-width="2" stroke-opacity="0.200000" points="632.82,-1533.09 638.8,-1530.94 632.79,-1528.89 632.82,-1533.09"/>
</g>
<!-- src/pages/Tasks/componenets/TaskList.tsx&#45;&gt;src/pages/Tasks/componenets/TaskCompletedViewList.tsx -->
<g id="edge28" class="edge">
<title>src/pages/Tasks/componenets/TaskList.tsx&#45;&gt;src/pages/Tasks/componenets/TaskCompletedViewList.tsx</title>
<path fill="none" stroke="#000000" stroke-width="2" stroke-opacity="0.200000" d="M434.32,-1554C448.59,-1554 465.97,-1554 483.19,-1554"/>
<polygon fill="#000000" fill-opacity="0.200000" stroke="#000000" stroke-width="2" stroke-opacity="0.200000" points="483.13,-1556.1 489.13,-1554 483.13,-1551.9 483.13,-1556.1"/>
</g>
<!-- src/vite&#45;env.d.ts -->
<g id="node63" class="node">
<title>src/vite&#45;env.d.ts</title>
<g id="a_node63"><a xlink:href="src/vite-env.d.ts" xlink:title="vite&#45;env.d.ts">
<path fill="#ccffcc" stroke="black" d="M104.71,-1559.62C104.71,-1559.62 46.04,-1559.62 46.04,-1559.62 42.83,-1559.62 39.62,-1556.42 39.62,-1553.21 39.62,-1553.21 39.62,-1546.79 39.62,-1546.79 39.62,-1543.58 42.83,-1540.38 46.04,-1540.38 46.04,-1540.38 104.71,-1540.38 104.71,-1540.38 107.92,-1540.38 111.12,-1543.58 111.12,-1546.79 111.12,-1546.79 111.12,-1553.21 111.12,-1553.21 111.12,-1556.42 107.92,-1559.62 104.71,-1559.62"/>
<text text-anchor="start" x="47.62" y="-1547.08" font-family="Helvetica,sans-Serif" font-size="9.00">vite&#45;env.d.ts</text>
</a>
</g>
</g>
</g>
</svg>
